<?xml version="1.0" encoding="UTF-8"?>
<svg version="1.1" xmlns="http://www.w3.org/2000/svg" width="500" height="500">
<path d="M0 0 C7.27566358 5.10947803 13.16089685 11.48269055 16 20 C16.58308784 25.94749595 15.49098364 30.21929184 12 35 C7.9166191 38.79051546 2.97416545 42.86481066 -2.75 43.125 C-3.4925 43.08375 -4.235 43.0425 -5 43 C-3.83058699 40.46627181 -2.64916834 38.56661971 -0.875 36.375 C1.65174322 31.8268622 1.95316431 28.09735694 1 23 C-1.30205762 18.30772085 -5.2454693 15.88200173 -10 14 C-17.66145709 11.83907621 -24.09225523 13.00625267 -31.0625 16.5625 C-37.04083823 21.52324875 -40.40938506 29.29994849 -41.37109375 36.953125 C-41.56906835 46.78198181 -39.88891982 55.88303631 -37.77905273 65.45996094 C-35.61368299 75.59639072 -34.9260166 85.00955394 -38 95 C-36.86966702 93.75482035 -35.74594964 92.50363348 -34.625 91.25 C-33.99851562 90.55390625 -33.37203125 89.8578125 -32.7265625 89.140625 C-30.01357187 85.77700766 -28.74807146 83.13865257 -28.734375 78.796875 C-28.72869507 77.58572021 -28.72869507 77.58572021 -28.72290039 76.35009766 C-28.73184326 75.49206543 -28.74078613 74.6340332 -28.75 73.75 C-28.75314209 72.85974121 -28.75628418 71.96948242 -28.75952148 71.05224609 C-28.82751157 65.49889527 -29.2492198 60.1151535 -30.0625 54.625 C-32.57037534 36.96239222 -32.57037534 36.96239222 -28.44921875 30.609375 C-27.97097656 30.07828125 -27.49273437 29.5471875 -27 29 C-26.5875 29.88300781 -26.175 30.76601563 -25.75 31.67578125 C-22.87940154 37.68643886 -19.9858355 43.29742168 -15.9375 48.625 C-6.34307881 61.30599855 -1.44154924 75.04776803 -3 91 C-5.7832145 104.94752124 -13.24110347 115.82569589 -24.859375 124.015625 C-35.44970163 130.54541189 -46.75796917 132.4679022 -58.875 134.625 C-61.24743126 135.05449187 -63.61982845 135.48417193 -65.9921875 135.9140625 C-67.02714355 136.0992041 -68.06209961 136.2843457 -69.12841797 136.47509766 C-71.75851991 136.95585936 -74.38002581 137.46709328 -77 138 C-76.7753918 149.7817209 -74.29207596 160.84854115 -71.62890625 172.27734375 C-71.08569481 174.62901068 -70.56667665 176.9834894 -70.0625 179.34375 C-67.2078556 192.46678421 -63.05342798 205.20810622 -59 218 C-58.46366943 219.70953857 -58.46366943 219.70953857 -57.91650391 221.45361328 C-53.75511318 234.71722648 -49.41029957 247.90328261 -44.75 261 C-44.34990723 262.12647949 -43.94981445 263.25295898 -43.53759766 264.41357422 C-40.91273128 271.70728705 -38.04682843 278.87254044 -35 286 C-32.47778233 282.2166735 -32.47851923 278.8372968 -32.125 274.4375 C-30.80175058 261.27663836 -26.87433321 253.048605 -17 244 C-16.34 244 -15.68 244 -15 244 C-15.06960938 244.79019531 -15.13921875 245.58039063 -15.2109375 246.39453125 C-15.67677701 256.09952094 -13.5720751 263.75642655 -10.41015625 272.84765625 C-7.78295509 280.40274333 -6.78205978 287.84467454 -9.0625 295.625 C-11.54627468 299.95157525 -14.6243852 303.3537663 -18 307 C-19.15196985 308.32803511 -20.29828008 309.66101166 -21.4375 311 C-22.283125 311.99 -23.12875 312.98 -24 314 C-21.09191266 322.06759713 -17.79032836 329.66166846 -13.8671875 337.2890625 C-12.5745738 339.81891146 -11.3604432 342.36993874 -10.1953125 344.9609375 C3.73984892 375.90906352 3.73984892 375.90906352 29 397 C28.67 397.66 28.34 398.32 28 399 C21.4 399.33 14.8 399.66 8 400 C9.65 401.98 11.3 403.96 13 406 C15.20607806 410.41215612 14.43232319 416.19770723 14 421 C12.57497295 424.76715072 9.81655699 427.2076541 7 430 C7.62648438 430.51949219 8.25296875 431.03898437 8.8984375 431.57421875 C9.71570313 432.27160156 10.53296875 432.96898437 11.375 433.6875 C12.59316406 434.71423828 12.59316406 434.71423828 13.8359375 435.76171875 C17.54558033 439.5985876 18.29022767 443.20350256 18.3125 448.4375 C18.15758039 454.8580573 16.55971913 458.71790132 11.9375 463.1875 C7.75220091 466.58916862 3.17749464 467.79451967 -2 469 C-2.60628738 469.17352997 -3.21257477 469.34705994 -3.8372345 469.52584839 C-6.26320371 470.05770319 -8.45274912 470.1270932 -10.9362793 470.12939453 C-11.91376633 470.13254669 -12.89125336 470.13569885 -13.89836121 470.13894653 C-14.9463942 470.1369223 -15.99442719 470.13489807 -17.07421875 470.1328125 C-18.15379349 470.13376923 -19.23336823 470.13472595 -20.34565735 470.13571167 C-22.62440041 470.13639162 -24.90314543 470.1345502 -27.18188477 470.13037109 C-30.6844513 470.12500467 -34.1868905 470.13033035 -37.68945312 470.13671875 C-39.90104195 470.13605824 -42.1126307 470.13477765 -44.32421875 470.1328125 C-45.37832443 470.13483673 -46.43243011 470.13686096 -47.51847839 470.13894653 C-48.48650894 470.13579437 -49.45453949 470.13264221 -50.4519043 470.12939453 C-51.3080986 470.12859894 -52.16429291 470.12780334 -53.0464325 470.12698364 C-55 470 -55 470 -56 469 C-56.09432985 466.79132169 -56.11742431 464.57958479 -56.11352539 462.36889648 C-56.11367142 461.67624695 -56.11381744 460.98359741 -56.1139679 460.2699585 C-56.11326874 457.97030554 -56.10547628 455.67073263 -56.09765625 453.37109375 C-56.09579208 451.78068588 -56.09436817 450.19027743 -56.09336853 448.59986877 C-56.08954329 444.4060407 -56.07971295 440.21224705 -56.06866455 436.01843262 C-56.05845057 431.74211086 -56.05387094 427.46578356 -56.04882812 423.18945312 C-56.03809069 414.79295292 -56.02101419 406.39648074 -56 398 C-57.16917969 398.0319043 -58.33835937 398.06380859 -59.54296875 398.09667969 C-61.09113372 398.12248244 -62.63931179 398.14750654 -64.1875 398.171875 C-64.95642578 398.19491699 -65.72535156 398.21795898 -66.51757812 398.24169922 C-72.2693008 398.30958436 -75.75190621 397.41095837 -80.015625 393.3125 C-87.77484873 384.27025502 -94.5838263 375.41155123 -96.94140625 363.51953125 C-97.09955811 362.72369629 -97.25770996 361.92786133 -97.4206543 361.10791016 C-97.71620234 359.53345381 -97.98359782 357.9533633 -98.21801758 356.36865234 C-99.15449484 351.13239846 -100.788147 348.50456073 -105.04248047 345.28930664 C-108.13943516 343.24951895 -111.28573446 341.48576751 -114.625 339.875 C-115.31722656 339.535896 -116.00945312 339.19679199 -116.72265625 338.84741211 C-128.55837108 333.20237335 -140.08853886 330.9587499 -153.09375 330.68359375 C-154.34194519 330.6524221 -154.34194519 330.6524221 -155.61535645 330.62062073 C-158.24349636 330.55583806 -160.87172625 330.49657588 -163.5 330.4375 C-165.29427971 330.39424678 -167.0885507 330.35063046 -168.8828125 330.30664062 C-173.25511885 330.20023106 -177.62751463 330.09876837 -182 330 C-182.4007373 331.23278687 -182.4007373 331.23278687 -182.80957031 332.49047852 C-184.13967326 336.41177258 -185.57992162 340.28067768 -187.046875 344.15234375 C-187.34055969 344.92953262 -187.63424438 345.7067215 -187.93682861 346.50746155 C-188.55820782 348.15078654 -189.18018841 349.79388424 -189.80273438 351.43676758 C-190.73499194 353.8978795 -191.66450547 356.36001476 -192.59375 358.82226562 C-193.20280904 360.43241122 -193.81218196 362.04243812 -194.421875 363.65234375 C-194.72041382 364.44152191 -195.01895264 365.23070007 -195.32653809 366.04379272 C-196.77219581 369.84593935 -198.24566602 373.63218456 -199.79101562 377.39501953 C-200.07148743 378.07995987 -200.35195923 378.76490021 -200.64093018 379.47059631 C-201.40141211 381.31592369 -202.1715497 383.15726353 -202.94238281 384.99829102 C-204.22154299 388.09834921 -204.22154299 388.09834921 -204 392 C-200.94027387 393.78542371 -198.83645838 394.20811811 -195.3125 394.0625 C-193.87586654 394.00842051 -192.43750606 393.97958916 -191 394 C-190 395 -190 395 -189.87974548 397.17030334 C-189.88196609 398.12738693 -189.88418671 399.08447052 -189.88647461 400.07055664 C-189.88655014 401.15160172 -189.88662567 402.23264679 -189.88670349 403.34645081 C-189.89186478 404.5224736 -189.89702606 405.6984964 -189.90234375 406.91015625 C-189.90446617 408.70591347 -189.90446617 408.70591347 -189.90663147 410.53794861 C-189.91225021 414.37949066 -189.92480589 418.22097543 -189.9375 422.0625 C-189.94251259 424.65950437 -189.94707591 427.25650965 -189.95117188 429.85351562 C-189.96137687 436.23571716 -189.98094864 442.6177941 -190 449 C-179.11 449 -168.22 449 -157 449 C-157 455.93 -157 462.86 -157 470 C-164.67536977 470.02255523 -172.35072729 470.04091753 -180.02612209 470.05181217 C-183.58977422 470.05703995 -187.15340257 470.06413569 -190.71704102 470.07543945 C-194.81006097 470.08834176 -198.9030558 470.09322906 -202.99609375 470.09765625 C-204.92418129 470.10539818 -204.92418129 470.10539818 -206.89122009 470.11329651 C-208.66294334 470.11340981 -208.66294334 470.11340981 -210.47045898 470.11352539 C-212.03932106 470.11685631 -212.03932106 470.11685631 -213.63987732 470.12025452 C-216 470 -216 470 -217 469 C-217.09919257 467.11474514 -217.12799351 465.22575267 -217.12939453 463.33789062 C-217.13254669 462.12572876 -217.13569885 460.91356689 -217.13894653 459.66467285 C-217.13715515 458.32853154 -217.1351038 456.99239055 -217.1328125 455.65625 C-217.13348615 454.28918439 -217.13445669 452.92211891 -217.13571167 451.55505371 C-217.13718973 448.67992012 -217.13503329 445.8048175 -217.13037109 442.9296875 C-217.12471666 439.26601903 -217.12792462 435.60242451 -217.13394356 431.93875885 C-217.13758314 429.10924743 -217.13639435 426.27975307 -217.13381577 423.45024109 C-217.13283355 421.44912671 -217.13584631 419.44801163 -217.13894653 417.44689941 C-217.12221439 410.87870403 -216.88921395 404.50971723 -216 398 C-223.3378158 397.8048135 -230.67272443 397.6878082 -238.0132246 397.66578102 C-241.4237448 397.65319195 -244.82981715 397.61547414 -248.23901367 397.51660156 C-264.32094541 396.40125769 -264.32094541 396.40125769 -278.69384766 402.10449219 C-282.06114962 405.40318341 -284.57393037 408.97013621 -287 413 C-287.66 413.99 -288.32 414.98 -289 416 C-289.66 416 -290.32 416 -291 416 C-291.26554687 416.58265625 -291.53109375 417.1653125 -291.8046875 417.765625 C-293.03302996 420.06174228 -294.40314939 421.80356018 -296.125 423.75 C-296.93324219 424.67039062 -296.93324219 424.67039062 -297.7578125 425.609375 C-298.16773438 426.06828125 -298.57765625 426.5271875 -299 427 C-297.54990614 431.26452334 -295.41610759 434.29425921 -292.625 437.8125 C-291.72686586 438.9562477 -290.82977893 440.1008183 -289.93359375 441.24609375 C-289.45905762 441.85050293 -288.98452148 442.45491211 -288.49560547 443.07763672 C-285.8501936 446.4778935 -283.26979222 449.92670988 -280.6875 453.375 C-280.19652832 454.02831299 -279.70555664 454.68162598 -279.19970703 455.35473633 C-276.07207321 459.5279238 -273.01718988 463.74625689 -270 468 C-270.33 468.66 -270.66 469.32 -271 470 C-295.87664137 472.05000604 -295.87664137 472.05000604 -302.2421875 468.88525391 C-306.02293884 465.64033088 -307.92328716 461.45149505 -310 457 C-311.27337744 455.03656617 -312.58246706 453.09549587 -313.9375 451.1875 C-314.46214844 450.37667969 -314.98679687 449.56585938 -315.52734375 448.73046875 C-316.25630859 447.87388672 -316.25630859 447.87388672 -317 447 C-317.99 447 -318.98 447 -320 447 C-321.66636656 449.91480593 -322.2377344 451.94448783 -322.16015625 455.29296875 C-322.14919922 456.08767578 -322.13824219 456.88238281 -322.12695312 457.70117188 C-322.10568359 458.52166016 -322.08441406 459.34214844 -322.0625 460.1875 C-322.00098012 463.12906152 -321.97933642 466.05691649 -322 469 C-323.74545605 470.74545605 -326.16124217 470.1302316 -328.53125 470.1328125 C-329.65144531 470.13410156 -330.77164063 470.13539063 -331.92578125 470.13671875 C-333.10527344 470.13285156 -334.28476562 470.12898438 -335.5 470.125 C-337.26923828 470.13080078 -337.26923828 470.13080078 -339.07421875 470.13671875 C-340.75451172 470.13478516 -340.75451172 470.13478516 -342.46875 470.1328125 C-343.50451172 470.13168457 -344.54027344 470.13055664 -345.60742188 470.12939453 C-348 470 -348 470 -349 469 C-349.09967534 466.74080007 -349.12799831 464.47843827 -349.12939453 462.21704102 C-349.13114685 461.50809692 -349.13289917 460.79915283 -349.13470459 460.06872559 C-349.13912336 457.71376126 -349.13618473 455.35887141 -349.1328125 453.00390625 C-349.13348561 451.37344854 -349.13445569 449.74299093 -349.13571167 448.11253357 C-349.13718874 444.69016569 -349.13503409 441.26782385 -349.13037109 437.84545898 C-349.1246783 433.45245314 -349.1279499 429.05950845 -349.13394356 424.66650486 C-349.13755278 421.29769935 -349.13640884 417.9289084 -349.13381577 414.56010246 C-349.13314726 412.94013398 -349.13397225 411.32016418 -349.13629532 409.70019722 C-349.13882725 407.43754693 -349.13497339 405.17499635 -349.12939453 402.91235352 C-349.12859894 401.62297379 -349.12780334 400.33359406 -349.12698364 399.00514221 C-349 396 -349 396 -348 394 C-344.02084841 393.97113016 -340.04172347 393.95324594 -336.0625 393.9375 C-334.92619141 393.92912109 -333.78988281 393.92074219 -332.61914062 393.91210938 C-331.53955078 393.90888672 -330.45996094 393.90566406 -329.34765625 393.90234375 C-327.84730835 393.89448853 -327.84730835 393.89448853 -326.31665039 393.88647461 C-324 394 -324 394 -323 395 C-322.84235595 396.77869726 -322.74899323 398.56318476 -322.68359375 400.34765625 C-322.64169922 401.42724609 -322.59980469 402.50683594 -322.55664062 403.61914062 C-322.51732422 404.75544922 -322.47800781 405.89175781 -322.4375 407.0625 C-322.39431641 408.20267578 -322.35113281 409.34285156 -322.30664062 410.51757812 C-322.20017161 413.34492195 -322.09815793 416.17235738 -322 419 C-318.7941289 415.52165884 -315.59817431 412.03466097 -312.41113281 408.5390625 C-311.18751153 407.20451084 -309.9504075 405.88234518 -308.7109375 404.5625 C-308.08445312 403.881875 -307.45796875 403.20125 -306.8125 402.5 C-306.26207031 401.9121875 -305.71164062 401.324375 -305.14453125 400.71875 C-303.63049095 398.7892656 -303.63049095 398.7892656 -304 395 C-303.05125 394.525625 -302.1025 394.05125 -301.125 393.5625 C-275.11328719 378.45892482 -266.31227329 344.70946603 -258 318 C-262.29 315.69 -266.58 313.38 -271 311 C-271 310.34 -271 309.68 -271 309 C-271.7425 308.731875 -272.485 308.46375 -273.25 308.1875 C-275.89061949 307.04723249 -277.85552844 305.90619694 -280 304 C-280 303.34 -280 302.68 -280 302 C-280.66 302 -281.32 302 -282 302 C-282 301.34 -282 300.68 -282 300 C-282.66 300 -283.32 300 -284 300 C-296.94044398 284.97423061 -301.25131198 268.90417386 -300.21582031 249.42724609 C-298.59399259 231.18718817 -289.19220328 215.02533478 -277.796875 201.19140625 C-275.97659504 199.02594053 -275.97659504 199.02594053 -274.390625 196.71484375 C-273.93171875 196.14894531 -273.4728125 195.58304688 -273 195 C-272.34 195 -271.68 195 -271 195 C-271 194.34 -271 193.68 -271 193 C-260.92745488 182.30532709 -247.80357709 174.87298618 -235 168 C-234.67 168.99 -234.34 169.98 -234 171 C-234.81984375 171.72445312 -235.6396875 172.44890625 -236.484375 173.1953125 C-237.57322915 174.17152657 -238.66175332 175.14810879 -239.75 176.125 C-240.28882813 176.599375 -240.82765625 177.07375 -241.3828125 177.5625 C-244.07517024 179.9921887 -246.31820593 182.29431196 -248.265625 185.3671875 C-249.12414062 186.67042969 -249.12414062 186.67042969 -250 188 C-250.66 188 -251.32 188 -252 188 C-252.27585937 188.70769531 -252.55171875 189.41539062 -252.8359375 190.14453125 C-254.41513145 194.01832581 -256.2030542 197.78629207 -257.9765625 201.57421875 C-259.1295734 203.86831219 -259.1295734 203.86831219 -259 206 C-258.34 206 -257.68 206 -257 206 C-257 205.34 -257 204.68 -257 204 C-255.23351239 202.65746942 -253.46070677 201.32289591 -251.66796875 200.015625 C-223.02799044 178.37839395 -206.77960182 151.51833131 -196.97851562 117.27441406 C-193.00405132 103.75552265 -186.49960567 92.32007181 -173.8046875 85.3359375 C-160.303934 78.90521647 -145.56639082 75.59311142 -130.75 74.0625 C-118.36664901 72.64549964 -106.31449853 68.63831897 -97.5625 59.4375 C-94.11679092 54.06219383 -93.03696526 49.32994711 -94 43 C-97.73026831 32.09229579 -104.91632531 25.96180818 -115 21 C-115 20.34 -115 19.68 -115 19 C-104.41164727 19.22927535 -94.34170343 22.28029446 -86 29 C-86 29.66 -86 30.32 -86 31 C-85.34 31 -84.68 31 -84 31 C-77.62091795 38.6876117 -76.29541231 47.29724034 -77 57 C-78.42919787 68.95166721 -83.77235207 76.11401127 -92.95703125 83.59375 C-101.4355619 89.68921372 -111.65274708 93.46697045 -121.4375 96.9375 C-129.86170293 100.29867188 -135.26280929 106.30089025 -139.02734375 114.41015625 C-141.93235963 122.14519853 -142.58754243 129.47472619 -143.12304688 137.64257812 C-144.14699715 150.9354822 -148.25357102 160.71186112 -157.9375 170.0625 C-168.74547091 179.10222191 -182.24785378 184.59812431 -194.88696289 190.53125 C-202.20435066 194.01086266 -208.96320254 197.8457009 -215.62109375 202.453125 C-218 204 -218 204 -220 204 C-220 204.66 -220 205.32 -220 206 C-221.12525155 207.02649277 -222.30282645 207.99587696 -223.5 208.9375 C-232.78459097 216.83927955 -240.86252858 228.77436409 -242.23925781 241.15087891 C-243.05036998 255.09900415 -241.12229838 266.01729171 -231.8515625 276.984375 C-231.24054688 277.64953125 -230.62953125 278.3146875 -230 279 C-229.17628906 279.90492188 -229.17628906 279.90492188 -228.3359375 280.828125 C-206.25813267 302.41963457 -166.18214368 303.90626896 -137.72900391 307.40185547 C-111.06304801 310.68126057 -111.06304801 310.68126057 -99 317 C-99.38929688 315.783125 -99.77859375 314.56625 -100.1796875 313.3125 C-104.04999464 301.19279469 -107.8679277 289.0572937 -111.65356445 276.91088867 C-114.11301271 269.02294169 -116.5841749 261.13879643 -119.06803894 253.25849915 C-120.53452251 248.60592695 -121.99917399 243.95277858 -123.46389771 239.2996521 C-124.19415994 236.98167452 -124.92533549 234.66398446 -125.65744019 232.34658813 C-126.69194065 229.07163624 -127.72323043 225.79568849 -128.75390625 222.51953125 C-129.06699738 221.53130371 -129.3800885 220.54307617 -129.70266724 219.52490234 C-129.99100433 218.60636475 -130.27934143 217.68782715 -130.57641602 216.74145508 C-130.82827164 215.94306717 -131.08012726 215.14467926 -131.33961487 214.32209778 C-132.02893241 211.8982656 -132.53810957 209.47636167 -133 207 C-135.09072579 209.09072579 -135.59312903 210.22257942 -136.55859375 212.953125 C-137.00513306 214.20005127 -137.00513306 214.20005127 -137.46069336 215.47216797 C-137.78303955 216.38885254 -138.10538574 217.30553711 -138.4375 218.25 C-139.15565806 220.2580243 -139.87444235 222.26582471 -140.59375 224.2734375 C-140.98046875 225.3572168 -141.3671875 226.44099609 -141.765625 227.55761719 C-143.95904267 233.67454541 -146.19834227 239.77470496 -148.4375 245.875 C-148.66944061 246.50708374 -148.90138123 247.13916748 -149.14035034 247.79040527 C-152.41055986 256.6996363 -155.68961003 265.60561196 -159 274.5 C-159.36150146 275.4782373 -159.72300293 276.45647461 -160.09545898 277.46435547 C-163.74213277 287.22052659 -163.74213277 287.22052659 -166 291 C-176.53469683 294.51156561 -193.56405931 285.71506459 -203 281 C-210.09682988 276.87515646 -216.28762833 271.89447748 -222 266 C-222.59425781 265.43796875 -223.18851562 264.8759375 -223.80078125 264.296875 C-226.66588055 261.36514548 -228.42781722 259.04519999 -228.6875 254.875 C-227.58014469 240.62381858 -216.93147083 223.15155883 -207 213 C-206.34 213 -205.68 213 -205 213 C-205 212.34 -205 211.68 -205 211 C-204.34 211 -203.68 211 -203 211 C-202.731875 210.360625 -202.46375 209.72125 -202.1875 209.0625 C-201 207 -201 207 -198 206 C-198 205.34 -198 204.68 -198 204 C-195.8721748 202.21152623 -193.74773198 200.56425028 -191.5 198.9375 C-190.8287207 198.44797852 -190.15744141 197.95845703 -189.46582031 197.45410156 C-182.87316535 192.74418904 -175.90608576 188.8749421 -168.80566406 184.99804688 C-153.93006728 176.77584033 -140.99703106 166.3716297 -135.89453125 149.609375 C-134.76677948 145.05897049 -133.88042642 140.47861428 -133 135.875 C-130.59969589 123.45663274 -127.6868022 114.78918347 -118 106 C-117.34 106 -116.68 106 -116 106 C-116 105.34 -116 104.68 -116 104 C-103.84500328 97.63835886 -91.9002867 92.51314175 -78.5625 89.0625 C-70.99476504 86.93301404 -66.92798785 84.42062361 -63.0625 77.5625 C-60.09208959 67.88116236 -62.02414236 56.93380326 -63.27685547 47.07006836 C-64.92488189 33.91156015 -64.40806266 21.86330961 -56 11 C-55.54238281 10.40574219 -55.08476562 9.81148437 -54.61328125 9.19921875 C-41.08369869 -6.17065968 -17.65758313 -9.07139874 0 0 Z M-30 414 C-30 416.97 -30 419.94 -30 423 C-27.93816367 423.08150744 -25.87538651 423.1394194 -23.8125 423.1875 C-22.08966797 423.23970703 -22.08966797 423.23970703 -20.33203125 423.29296875 C-16.72960801 422.97622579 -14.90633161 422.08533398 -12 420 C-12.37904208 416.70924004 -12.37904208 416.70924004 -14 414 C-16.69654854 413.92680379 -19.36691458 413.90757463 -22.0625 413.9375 C-23.20041992 413.94426758 -23.20041992 413.94426758 -24.36132812 413.95117188 C-26.24091871 413.9629932 -28.12046899 413.98092922 -30 414 Z M-30 441 C-30 444.3 -30 447.6 -30 451 C-27.43721301 451.05420701 -24.87558517 451.09377007 -22.3125 451.125 C-21.59126953 451.14175781 -20.87003906 451.15851563 -20.12695312 451.17578125 C-15.95123219 451.21391569 -12.7505862 450.8789919 -9 449 C-8.83318891 446.08347826 -8.83318891 446.08347826 -9 443 C-10.765535 440.82009873 -10.765535 440.82009873 -12.97119141 440.77294922 C-14.1494751 440.78865967 -14.1494751 440.78865967 -15.3515625 440.8046875 C-16.20234375 440.81113281 -17.053125 440.81757813 -17.9296875 440.82421875 C-18.81914062 440.84097656 -19.70859375 440.85773438 -20.625 440.875 C-21.97078125 440.88853516 -21.97078125 440.88853516 -23.34375 440.90234375 C-25.56261322 440.92594868 -27.7813397 440.96182038 -30 441 Z " fill="#F28104" transform="translate(390,13)"/>
<path d="M0 0 C0 4.17258264 -2.26886264 6.36834681 -4.6875 9.5625 C-8.77418107 15.13192107 -12.3513589 20.58296709 -15 27 C-15.47566406 28.09054688 -15.47566406 28.09054688 -15.9609375 29.203125 C-21.06496516 42.96995189 -18.25140203 57.88963454 -12.75 70.97265625 C-1.77777017 94.63152681 17.3016909 111.090702 41.49609375 120.3359375 C61.41465921 127.29002394 82.6738842 128.72404719 103.5625 130.0625 C140.53649745 132.45615883 140.53649745 132.45615883 155 141 C155.90621094 141.47953125 156.81242188 141.9590625 157.74609375 142.453125 C160.45811944 144.12857301 162.17612668 145.37452309 164 148 C164.73682985 152.76065245 164.53638348 157.22552483 164 162 C160.47128222 161.38387467 158.38861807 159.97140639 155.5625 157.8125 C141.46823663 147.71852021 125.95144707 144.04422541 108.90625 143.68359375 C107.65805481 143.6524221 107.65805481 143.6524221 106.38464355 143.62062073 C103.75650364 143.55583806 101.12827375 143.49657588 98.5 143.4375 C96.70572029 143.39424678 94.9114493 143.35063046 93.1171875 143.30664062 C88.74488115 143.20023106 84.37248537 143.09876837 80 143 C79.7328418 143.82185791 79.46568359 144.64371582 79.19042969 145.49047852 C77.86032674 149.41177258 76.42007838 153.28067768 74.953125 157.15234375 C74.51259796 158.31812706 74.51259796 158.31812706 74.06317139 159.50746155 C73.44179218 161.15078654 72.81981159 162.79388424 72.19726562 164.43676758 C71.26500806 166.8978795 70.33549453 169.36001476 69.40625 171.82226562 C68.79719096 173.43241122 68.18781804 175.04243812 67.578125 176.65234375 C67.27958618 177.44152191 66.98104736 178.23070007 66.67346191 179.04379272 C65.22780419 182.84593935 63.75433398 186.63218456 62.20898438 190.39501953 C61.92851257 191.07995987 61.64804077 191.76490021 61.35906982 192.47059631 C60.59858789 194.31592369 59.8284503 196.15726353 59.05761719 197.99829102 C57.77845701 201.09834921 57.77845701 201.09834921 58 205 C61.05972613 206.78542371 63.16354162 207.20811811 66.6875 207.0625 C68.12413346 207.00842051 69.56249394 206.97958916 71 207 C72 208 72 208 72.12025452 210.17030334 C72.11803391 211.12738693 72.11581329 212.08447052 72.11352539 213.07055664 C72.11344986 214.15160172 72.11337433 215.23264679 72.11329651 216.34645081 C72.10813522 217.5224736 72.10297394 218.6984964 72.09765625 219.91015625 C72.09553383 221.70591347 72.09553383 221.70591347 72.09336853 223.53794861 C72.08774979 227.37949066 72.07519411 231.22097543 72.0625 235.0625 C72.05748741 237.65950437 72.05292409 240.25650965 72.04882812 242.85351562 C72.03862313 249.23571716 72.01905136 255.6177941 72 262 C82.89 262 93.78 262 105 262 C105 268.93 105 275.86 105 283 C97.32463023 283.02255523 89.64927271 283.04091753 81.97387791 283.05181217 C78.41022578 283.05703995 74.84659743 283.06413569 71.28295898 283.07543945 C67.18993903 283.08834176 63.0969442 283.09322906 59.00390625 283.09765625 C57.07581871 283.10539818 57.07581871 283.10539818 55.10877991 283.11329651 C53.33705666 283.11340981 53.33705666 283.11340981 51.52954102 283.11352539 C49.96067894 283.11685631 49.96067894 283.11685631 48.36012268 283.12025452 C46 283 46 283 45 282 C44.90080743 280.11474514 44.87200649 278.22575267 44.87060547 276.33789062 C44.86745331 275.12572876 44.86430115 273.91356689 44.86105347 272.66467285 C44.86284485 271.32853154 44.8648962 269.99239055 44.8671875 268.65625 C44.86651385 267.28918439 44.86554331 265.92211891 44.86428833 264.55505371 C44.86281027 261.67992012 44.86496671 258.8048175 44.86962891 255.9296875 C44.87528334 252.26601903 44.87207538 248.60242451 44.86605644 244.93875885 C44.86241686 242.10924743 44.86360565 239.27975307 44.86618423 236.45024109 C44.86716645 234.44912671 44.86415369 232.44801163 44.86105347 230.44689941 C44.87778561 223.87870403 45.11078605 217.50971723 46 211 C38.6621842 210.8048135 31.32727557 210.6878082 23.9867754 210.66578102 C20.5762552 210.65319195 17.17018285 210.61547414 13.76098633 210.51660156 C-2.32094541 209.40125769 -2.32094541 209.40125769 -16.69384766 215.10449219 C-20.06114962 218.40318341 -22.57393037 221.97013621 -25 226 C-25.66 226.99 -26.32 227.98 -27 229 C-27.66 229 -28.32 229 -29 229 C-29.26554687 229.58265625 -29.53109375 230.1653125 -29.8046875 230.765625 C-31.03302996 233.06174228 -32.40314939 234.80356018 -34.125 236.75 C-34.93324219 237.67039062 -34.93324219 237.67039062 -35.7578125 238.609375 C-36.16773438 239.06828125 -36.57765625 239.5271875 -37 240 C-35.54990614 244.26452334 -33.41610759 247.29425921 -30.625 250.8125 C-29.72686586 251.9562477 -28.82977893 253.1008183 -27.93359375 254.24609375 C-27.45905762 254.85050293 -26.98452148 255.45491211 -26.49560547 256.07763672 C-23.8501936 259.4778935 -21.26979222 262.92670988 -18.6875 266.375 C-18.19652832 267.02831299 -17.70555664 267.68162598 -17.19970703 268.35473633 C-14.07207321 272.5279238 -11.01718988 276.74625689 -8 281 C-8.33 281.66 -8.66 282.32 -9 283 C-33.87664137 285.05000604 -33.87664137 285.05000604 -40.2421875 281.88525391 C-44.02293884 278.64033088 -45.92328716 274.45149505 -48 270 C-49.27337744 268.03656617 -50.58246706 266.09549587 -51.9375 264.1875 C-52.46214844 263.37667969 -52.98679688 262.56585938 -53.52734375 261.73046875 C-54.25630859 260.87388672 -54.25630859 260.87388672 -55 260 C-55.99 260 -56.98 260 -58 260 C-59.66636656 262.91480593 -60.2377344 264.94448783 -60.16015625 268.29296875 C-60.14919922 269.08767578 -60.13824219 269.88238281 -60.12695312 270.70117188 C-60.10568359 271.52166016 -60.08441406 272.34214844 -60.0625 273.1875 C-60.00098012 276.12906152 -59.97933642 279.05691649 -60 282 C-61.74545605 283.74545605 -64.16124217 283.1302316 -66.53125 283.1328125 C-67.65144531 283.13410156 -68.77164063 283.13539063 -69.92578125 283.13671875 C-71.10527344 283.13285156 -72.28476563 283.12898438 -73.5 283.125 C-75.26923828 283.13080078 -75.26923828 283.13080078 -77.07421875 283.13671875 C-78.75451172 283.13478516 -78.75451172 283.13478516 -80.46875 283.1328125 C-81.50451172 283.13168457 -82.54027344 283.13055664 -83.60742188 283.12939453 C-86 283 -86 283 -87 282 C-87.09967534 279.74080007 -87.12799831 277.47843827 -87.12939453 275.21704102 C-87.13114685 274.50809692 -87.13289917 273.79915283 -87.13470459 273.06872559 C-87.13912336 270.71376126 -87.13618473 268.35887141 -87.1328125 266.00390625 C-87.13348561 264.37344854 -87.13445569 262.74299093 -87.13571167 261.11253357 C-87.13718874 257.69016569 -87.13503409 254.26782385 -87.13037109 250.84545898 C-87.1246783 246.45245314 -87.1279499 242.05950845 -87.13394356 237.66650486 C-87.13755278 234.29769935 -87.13640884 230.9289084 -87.13381577 227.56010246 C-87.13314726 225.94013398 -87.13397225 224.32016418 -87.13629532 222.70019722 C-87.13882725 220.43754693 -87.13497339 218.17499635 -87.12939453 215.91235352 C-87.12859894 214.62297379 -87.12780334 213.33359406 -87.12698364 212.00514221 C-87 209 -87 209 -86 207 C-82.02084841 206.97113016 -78.04172347 206.95324594 -74.0625 206.9375 C-72.92619141 206.92912109 -71.78988281 206.92074219 -70.61914062 206.91210938 C-69.53955078 206.90888672 -68.45996094 206.90566406 -67.34765625 206.90234375 C-66.34742432 206.89710693 -65.34719238 206.89187012 -64.31665039 206.88647461 C-62 207 -62 207 -61 208 C-60.84235595 209.77869726 -60.74899323 211.56318476 -60.68359375 213.34765625 C-60.64169922 214.42724609 -60.59980469 215.50683594 -60.55664062 216.61914062 C-60.51732422 217.75544922 -60.47800781 218.89175781 -60.4375 220.0625 C-60.39431641 221.20267578 -60.35113281 222.34285156 -60.30664062 223.51757812 C-60.20017161 226.34492195 -60.09815793 229.17235738 -60 232 C-56.7941289 228.52165884 -53.59817431 225.03466097 -50.41113281 221.5390625 C-49.18751153 220.20451084 -47.9504075 218.88234518 -46.7109375 217.5625 C-46.08445313 216.881875 -45.45796875 216.20125 -44.8125 215.5 C-44.26207031 214.9121875 -43.71164063 214.324375 -43.14453125 213.71875 C-41.63049095 211.7892656 -41.63049095 211.7892656 -42 208 C-41.05125 207.525625 -40.1025 207.05125 -39.125 206.5625 C-13.11328719 191.45892482 -4.31227329 157.70946603 4 131 C-0.29 128.69 -4.58 126.38 -9 124 C-9 123.34 -9 122.68 -9 122 C-9.7425 121.731875 -10.485 121.46375 -11.25 121.1875 C-13.89061949 120.04723249 -15.85552844 118.90619694 -18 117 C-18 116.34 -18 115.68 -18 115 C-18.66 115 -19.32 115 -20 115 C-20 114.34 -20 113.68 -20 113 C-20.66 113 -21.32 113 -22 113 C-34.94044398 97.97423061 -39.25131198 81.90417386 -38.21582031 62.42724609 C-36.59399259 44.18718817 -27.19220328 28.02533478 -15.796875 14.19140625 C-13.97659504 12.02594053 -13.97659504 12.02594053 -12.390625 9.71484375 C-11.93171875 9.14894531 -11.4728125 8.58304688 -11 8 C-10.34 8 -9.68 8 -9 8 C-9 7.34 -9 6.68 -9 6 C-3.80769231 1.26923077 -3.80769231 1.26923077 0 0 Z " fill="#E72A33" transform="translate(128,200)"/>
<path d="M0 0 C7.27566358 5.10947803 13.16089685 11.48269055 16 20 C16.58308784 25.94749595 15.49098364 30.21929184 12 35 C7.9166191 38.79051546 2.97416545 42.86481066 -2.75 43.125 C-3.4925 43.08375 -4.235 43.0425 -5 43 C-3.83058699 40.46627181 -2.64916834 38.56661971 -0.875 36.375 C1.65174322 31.8268622 1.95316431 28.09735694 1 23 C-1.30205762 18.30772085 -5.2454693 15.88200173 -10 14 C-17.66145709 11.83907621 -24.09225523 13.00625267 -31.0625 16.5625 C-37.04083823 21.52324875 -40.40938506 29.29994849 -41.37109375 36.953125 C-41.56906835 46.78198181 -39.88891982 55.88303631 -37.77905273 65.45996094 C-35.61368299 75.59639072 -34.9260166 85.00955394 -38 95 C-36.86966702 93.75482035 -35.74594964 92.50363348 -34.625 91.25 C-33.99851562 90.55390625 -33.37203125 89.8578125 -32.7265625 89.140625 C-30.01357187 85.77700766 -28.74807146 83.13865257 -28.734375 78.796875 C-28.72869507 77.58572021 -28.72869507 77.58572021 -28.72290039 76.35009766 C-28.73184326 75.49206543 -28.74078613 74.6340332 -28.75 73.75 C-28.75471313 72.41461182 -28.75471313 72.41461182 -28.75952148 71.05224609 C-28.82751157 65.49889527 -29.2492198 60.1151535 -30.0625 54.625 C-32.57037534 36.96239222 -32.57037534 36.96239222 -28.44921875 30.609375 C-27.97097656 30.07828125 -27.49273437 29.5471875 -27 29 C-26.38125 30.32451172 -26.38125 30.32451172 -25.75 31.67578125 C-22.87940154 37.68643886 -19.9858355 43.29742168 -15.9375 48.625 C-6.34307881 61.30599855 -1.44154924 75.04776803 -3 91 C-4.9193985 100.61868063 -8.52102458 108.82640927 -15.75 115.5625 C-18 117 -18 117 -20 117 C-22.03426606 118.03654967 -24.05227175 119.1050694 -26.0625 120.1875 C-36.53326988 125.52767325 -47.26267187 128.36509454 -58.77734375 130.46484375 C-59.47386047 130.59218399 -60.1703772 130.71952423 -60.88800049 130.85072327 C-64.39782836 131.48717105 -67.9097266 132.1011323 -71.42919922 132.68188477 C-88.08795634 135.51807074 -103.79656637 141.92253542 -114 156 C-114.33 156.99 -114.66 157.98 -115 159 C-114.55011719 158.50371094 -114.10023438 158.00742188 -113.63671875 157.49609375 C-106.36395274 149.81523666 -97.68256505 144.22511929 -88 140 C-87.34 140.33 -86.68 140.66 -86 141 C-86.60585938 141.48726562 -87.21171875 141.97453125 -87.8359375 142.4765625 C-101.4508215 153.99684896 -109.39512135 168.43354367 -114.8125 185.3125 C-115.01979736 185.95815918 -115.22709473 186.60381836 -115.44067383 187.26904297 C-121.07406084 205.82524398 -117.80478876 225.64389636 -114.77880859 244.35888672 C-114.60658279 245.43396484 -114.60658279 245.43396484 -114.43087769 246.53076172 C-114.11363868 248.49409983 -113.78663636 250.45585326 -113.45898438 252.41748047 C-113.00156332 255.9877978 -112.91912004 259.40488573 -113 263 C-113.99 263 -114.98 263 -116 263 C-118.2639849 255.82951638 -120.5239042 248.65776068 -122.78100586 241.48510742 C-123.54927589 239.04535945 -124.31847507 236.60590386 -125.08862305 234.16674805 C-126.19564487 230.6601083 -127.29931767 227.15242961 -128.40234375 223.64453125 C-128.74716293 222.55477493 -129.09198212 221.46501862 -129.44725037 220.34223938 C-129.76750687 219.32155869 -130.08776337 218.30087799 -130.41772461 217.24926758 C-130.69974228 216.35436111 -130.98175995 215.45945465 -131.27232361 214.53742981 C-131.98872014 212.03933321 -132.52822981 209.55454394 -133 207 C-135.09072579 209.09072579 -135.59312903 210.22257942 -136.55859375 212.953125 C-136.85628662 213.78440918 -137.15397949 214.61569336 -137.46069336 215.47216797 C-137.78303955 216.38885254 -138.10538574 217.30553711 -138.4375 218.25 C-139.15565806 220.2580243 -139.87444235 222.26582471 -140.59375 224.2734375 C-140.98046875 225.3572168 -141.3671875 226.44099609 -141.765625 227.55761719 C-143.95904267 233.67454541 -146.19834227 239.77470496 -148.4375 245.875 C-148.66944061 246.50708374 -148.90138123 247.13916748 -149.14035034 247.79040527 C-152.41055986 256.6996363 -155.68961003 265.60561196 -159 274.5 C-159.36150146 275.4782373 -159.72300293 276.45647461 -160.09545898 277.46435547 C-163.74213277 287.22052659 -163.74213277 287.22052659 -166 291 C-176.53469683 294.51156561 -193.56405931 285.71506459 -203 281 C-210.09682988 276.87515646 -216.28762833 271.89447748 -222 266 C-222.59425781 265.43796875 -223.18851563 264.8759375 -223.80078125 264.296875 C-226.66588055 261.36514548 -228.42781722 259.04519999 -228.6875 254.875 C-227.58014469 240.62381858 -216.93147083 223.15155883 -207 213 C-206.34 213 -205.68 213 -205 213 C-205 212.34 -205 211.68 -205 211 C-204.34 211 -203.68 211 -203 211 C-202.731875 210.360625 -202.46375 209.72125 -202.1875 209.0625 C-201 207 -201 207 -198 206 C-198 205.34 -198 204.68 -198 204 C-195.8721748 202.21152623 -193.74773198 200.56425028 -191.5 198.9375 C-190.8287207 198.44797852 -190.15744141 197.95845703 -189.46582031 197.45410156 C-182.87316535 192.74418904 -175.90608576 188.8749421 -168.80566406 184.99804688 C-153.93006728 176.77584033 -140.99703106 166.3716297 -135.89453125 149.609375 C-134.76677948 145.05897049 -133.88042642 140.47861428 -133 135.875 C-130.59969589 123.45663274 -127.6868022 114.78918347 -118 106 C-117.34 106 -116.68 106 -116 106 C-116 105.34 -116 104.68 -116 104 C-103.84500328 97.63835886 -91.9002867 92.51314175 -78.5625 89.0625 C-70.99476504 86.93301404 -66.92798785 84.42062361 -63.0625 77.5625 C-60.09208959 67.88116236 -62.02414236 56.93380326 -63.27685547 47.07006836 C-64.92488189 33.91156015 -64.40806266 21.86330961 -56 11 C-55.31357422 10.10861328 -55.31357422 10.10861328 -54.61328125 9.19921875 C-41.08369869 -6.17065968 -17.65758313 -9.07139874 0 0 Z " fill="#EAA205" transform="translate(390,13)"/>
<path d="M0 0 C0.66 0 1.32 0 2 0 C2.98355849 3.06110696 3.96106019 6.1241156 4.9375 9.1875 C5.21529297 10.05181641 5.49308594 10.91613281 5.77929688 11.80664062 C6.04677734 12.64775391 6.31425781 13.48886719 6.58984375 14.35546875 C6.83597412 15.12528076 7.08210449 15.89509277 7.33569336 16.68823242 C9.35003799 23.6980925 10.0060498 30.5675948 7.9375 37.625 C5.45372532 41.95157525 2.3756148 45.3537663 -1 49 C-2.15196985 50.32803511 -3.29828008 51.66101166 -4.4375 53 C-5.283125 53.99 -6.12875 54.98 -7 56 C-4.09191266 64.06759713 -0.79032836 71.66166846 3.1328125 79.2890625 C4.4254262 81.81891146 5.6395568 84.36993874 6.8046875 86.9609375 C20.73984892 117.90906352 20.73984892 117.90906352 46 139 C45.67 139.66 45.34 140.32 45 141 C35.1 141.495 35.1 141.495 25 142 C26.65 143.98 28.3 145.96 30 148 C32.20607806 152.41215612 31.43232319 158.19770723 31 163 C29.57497295 166.76715072 26.81655699 169.2076541 24 172 C24.62648438 172.51949219 25.25296875 173.03898438 25.8984375 173.57421875 C26.71570313 174.27160156 27.53296875 174.96898437 28.375 175.6875 C29.18710937 176.37199219 29.99921875 177.05648437 30.8359375 177.76171875 C34.54558033 181.5985876 35.29022767 185.20350256 35.3125 190.4375 C35.15758039 196.8580573 33.55971913 200.71790132 28.9375 205.1875 C24.75220091 208.58916862 20.17749464 209.79451967 15 211 C14.39371262 211.17352997 13.78742523 211.34705994 13.1627655 211.52584839 C10.73679629 212.05770319 8.54725088 212.1270932 6.0637207 212.12939453 C5.08623367 212.13254669 4.10874664 212.13569885 3.10163879 212.13894653 C2.0536058 212.1369223 1.00557281 212.13489807 -0.07421875 212.1328125 C-1.15379349 212.13376923 -2.23336823 212.13472595 -3.34565735 212.13571167 C-5.62440041 212.13639162 -7.90314543 212.1345502 -10.18188477 212.13037109 C-13.6844513 212.12500467 -17.1868905 212.13033035 -20.68945312 212.13671875 C-22.90104195 212.13605824 -25.1126307 212.13477765 -27.32421875 212.1328125 C-28.37832443 212.13483673 -29.43243011 212.13686096 -30.51847839 212.13894653 C-31.48650894 212.13579437 -32.45453949 212.13264221 -33.4519043 212.12939453 C-34.3080986 212.12859894 -35.16429291 212.12780334 -36.0464325 212.12698364 C-38 212 -38 212 -39 211 C-39.09432985 208.79132169 -39.11742431 206.57958479 -39.11352539 204.36889648 C-39.11367142 203.67624695 -39.11381744 202.98359741 -39.1139679 202.2699585 C-39.11326874 199.97030554 -39.10547628 197.67073263 -39.09765625 195.37109375 C-39.09579208 193.78068588 -39.09436817 192.19027743 -39.09336853 190.59986877 C-39.08954329 186.4060407 -39.07971295 182.21224705 -39.06866455 178.01843262 C-39.05845057 173.74211086 -39.05387094 169.46578356 -39.04882812 165.18945312 C-39.03809068 156.79295116 -39.02049384 148.39648382 -39 140 C-44.61 140 -50.22 140 -56 140 C-56.33 138.35 -56.66 136.7 -57 135 C-58.26121335 131.50168364 -59.59653792 128.03725352 -60.94140625 124.5703125 C-62.26642371 120.10143442 -62.72531857 116.22996878 -61.265625 111.7421875 C-60.93046875 111.12601562 -60.5953125 110.50984375 -60.25 109.875 C-59.92515625 109.25367188 -59.6003125 108.63234375 -59.265625 107.9921875 C-56.0129913 102.87230111 -52.47638927 99.73319865 -47.3125 96.625 C-46.05563045 95.83597338 -44.80042056 95.04429693 -43.546875 94.25 C-42.63518555 93.67378906 -42.63518555 93.67378906 -41.70507812 93.0859375 C-29.48601921 85.30381063 -24.4547595 76.09266252 -20.1875 62.55883789 C-17.02636359 52.67508738 -12.09066001 45.62500068 -4.87036133 38.28369141 C0.34369359 32.91029512 2.42026939 28.56490761 2.3125 21.0625 C2.20989855 15.92162721 1.58136225 11.8429219 0 7 C-0.07403678 4.66784156 -0.09515886 2.33139212 0 0 Z M-13 156 C-13 158.97 -13 161.94 -13 165 C-10.93816367 165.08150744 -8.87538651 165.1394194 -6.8125 165.1875 C-5.08966797 165.23970703 -5.08966797 165.23970703 -3.33203125 165.29296875 C0.27039199 164.97622579 2.09366839 164.08533398 5 162 C4.62095792 158.70924004 4.62095792 158.70924004 3 156 C0.30345146 155.92680379 -2.36691458 155.90757463 -5.0625 155.9375 C-6.20041992 155.94426758 -6.20041992 155.94426758 -7.36132812 155.95117188 C-9.24091871 155.9629932 -11.12046899 155.98092922 -13 156 Z M-13 183 C-13 186.3 -13 189.6 -13 193 C-10.43721301 193.05420701 -7.87558517 193.09377007 -5.3125 193.125 C-4.59126953 193.14175781 -3.87003906 193.15851563 -3.12695312 193.17578125 C1.04876781 193.21391569 4.2494138 192.8789919 8 191 C8.16681109 188.08347826 8.16681109 188.08347826 8 185 C6.234465 182.82009873 6.234465 182.82009873 4.02880859 182.77294922 C2.8505249 182.78865967 2.8505249 182.78865967 1.6484375 182.8046875 C0.79765625 182.81113281 -0.053125 182.81757813 -0.9296875 182.82421875 C-1.81914062 182.84097656 -2.70859375 182.85773438 -3.625 182.875 C-4.97078125 182.88853516 -4.97078125 182.88853516 -6.34375 182.90234375 C-8.56261322 182.92594868 -10.7813397 182.96182038 -13 183 Z " fill="#F05908" transform="translate(373,271)"/>
<path d="M0 0 C0 4.17258264 -2.26886264 6.36834681 -4.6875 9.5625 C-8.77418107 15.13192107 -12.3513589 20.58296709 -15 27 C-15.31710938 27.72703125 -15.63421875 28.4540625 -15.9609375 29.203125 C-21.06496516 42.96995189 -18.25140203 57.88963454 -12.75 70.97265625 C-1.77777017 94.63152681 17.3016909 111.090702 41.49609375 120.3359375 C61.41465921 127.29002394 82.6738842 128.72404719 103.5625 130.0625 C140.53649745 132.45615883 140.53649745 132.45615883 155 141 C155.90621094 141.47953125 156.81242188 141.9590625 157.74609375 142.453125 C160.45811944 144.12857301 162.17612668 145.37452309 164 148 C164.73682985 152.76065245 164.53638348 157.22552483 164 162 C160.47128222 161.38387467 158.38861807 159.97140639 155.5625 157.8125 C141.46823663 147.71852021 125.95144707 144.04422541 108.90625 143.68359375 C107.65805481 143.6524221 107.65805481 143.6524221 106.38464355 143.62062073 C103.75650364 143.55583806 101.12827375 143.49657588 98.5 143.4375 C96.70572029 143.39424678 94.9114493 143.35063046 93.1171875 143.30664062 C88.74488115 143.20023106 84.37248537 143.09876837 80 143 C79.71125 143.94875 79.4225 144.8975 79.125 145.875 C78 149 78 149 76 151 C75.01 150.67 74.02 150.34 73 150 C70.1039242 149.87830065 67.23285622 149.81174382 64.3359375 149.796875 C63.47046295 149.79117493 62.6049884 149.78547485 61.71328735 149.77960205 C59.87234721 149.77014598 58.03139009 149.76361566 56.19042969 149.75976562 C53.43392039 149.75020437 50.67820458 149.71925038 47.921875 149.6875 C36.6091627 149.61947491 26.04670654 150.56351332 15 153 C14.08557129 153.19980469 13.17114258 153.39960938 12.22900391 153.60546875 C10.18600011 154.07723358 8.1544385 154.59792702 6.125 155.125 C5.46371094 155.29386719 4.80242187 155.46273437 4.12109375 155.63671875 C1.37848672 156.34323212 -1.31227365 157.10409122 -4 158 C-2.68764148 151.63569826 -0.98780585 145.57878972 1.125 139.4375 C1.40214844 138.61958984 1.67929688 137.80167969 1.96484375 136.95898438 C2.63905137 134.97123432 3.31892204 132.98540651 4 131 C-2.435 127.535 -2.435 127.535 -9 124 C-9 123.34 -9 122.68 -9 122 C-9.7425 121.731875 -10.485 121.46375 -11.25 121.1875 C-13.89061949 120.04723249 -15.85552844 118.90619694 -18 117 C-18 116.34 -18 115.68 -18 115 C-18.66 115 -19.32 115 -20 115 C-20 114.34 -20 113.68 -20 113 C-20.66 113 -21.32 113 -22 113 C-34.94044398 97.97423061 -39.25131198 81.90417386 -38.21582031 62.42724609 C-36.59399259 44.18718817 -27.19220328 28.02533478 -15.796875 14.19140625 C-13.97659504 12.02594053 -13.97659504 12.02594053 -12.390625 9.71484375 C-11.93171875 9.14894531 -11.4728125 8.58304688 -11 8 C-10.34 8 -9.68 8 -9 8 C-9 7.34 -9 6.68 -9 6 C-3.80769231 1.26923077 -3.80769231 1.26923077 0 0 Z " fill="#C85921" transform="translate(128,200)"/>
<path d="M0 0 C0.495 1.485 0.495 1.485 1 3 C-10.9404069 14.39766114 -24.26832151 16.6525287 -40.02929688 19.46386719 C-44.05229163 20.18991062 -48.05722173 20.99532973 -52.0625 21.8125 C-55.03125 22.40625 -55.03125 22.40625 -58 23 C-57.7753918 34.7817209 -55.29207596 45.84854115 -52.62890625 57.27734375 C-52.08569481 59.62901068 -51.56667665 61.9834894 -51.0625 64.34375 C-48.2078556 77.46678421 -44.05342798 90.20810622 -40 103 C-39.64244629 104.13969238 -39.28489258 105.27938477 -38.91650391 106.45361328 C-32.25686489 127.6799008 -25.1069724 148.72710213 -16.92675781 169.42016602 C-16 172 -16 172 -16 174 C-21.34858007 176.67429003 -25.00709506 177.57995854 -31 177 C-35.57687916 174.91960038 -38.96746493 171.96673347 -41.3125 167.5 C-42.0604124 164.78031854 -41.77688698 163.63806227 -41 161 C-40.51080078 162.04800781 -40.51080078 162.04800781 -40.01171875 163.1171875 C-39.57472656 164.02726563 -39.13773437 164.93734375 -38.6875 165.875 C-38.25824219 166.77992188 -37.82898438 167.68484375 -37.38671875 168.6171875 C-36.0800612 171.26449476 -36.0800612 171.26449476 -33 173 C-32.01 173 -31.02 173 -30 173 C-30.34144043 172.47792969 -30.68288086 171.95585937 -31.03466797 171.41796875 C-38.48189356 160.02134346 -45.83686094 148.57744371 -53 137 C-52.67 140.3 -52.34 143.6 -52 147 C-56.21035209 143.17510268 -58.87205797 139.27656572 -61.5 134.25 C-61.88873291 133.5084668 -62.27746582 132.76693359 -62.67797852 132.00292969 C-72.88142361 111.80475116 -74.15369061 89.25952315 -74 67 C-78.7452385 74.94551563 -78.77935 83.00851236 -79 92 C-84.52678571 86.61607143 -84.52678571 86.61607143 -86 83 C-87.07501576 88.18629555 -87.08261177 93.10461286 -86.9921875 98.3671875 C-86.97227109 100.23110983 -86.95334667 102.09504297 -86.93530273 103.95898438 C-86.9248996 104.92666748 -86.91449646 105.89435059 -86.90377808 106.89135742 C-86.54728562 143.85164876 -86.54728562 143.85164876 -91 161 C-91.66 161 -92.32 161 -93 161 C-93.52787642 159.02270019 -94.04712903 157.04309608 -94.5625 155.0625 C-94.99755859 153.40927734 -94.99755859 153.40927734 -95.44140625 151.72265625 C-95.62574219 150.82417969 -95.81007813 149.92570313 -96 149 C-95.67 148.67 -95.34 148.34 -95 148 C-94.92994406 140.06966743 -96.24773642 132.22755763 -97.50488281 124.42456055 C-102.20221909 95.04975577 -101.0783898 68.39149604 -84 43 C-79.24939823 36.57023349 -74.2842251 30.94715593 -68 26 C-77.95323469 30.40822196 -86.01095528 35.05847491 -93.7421875 42.77734375 C-96 45 -96 45 -98 46 C-94.14387474 34.77128292 -83.79277088 27.84663427 -73.59082031 22.81079102 C-65.48891218 19.12210044 -57.43730822 17.48210769 -48.73477173 15.9743042 C-22.52056536 12.38449327 -22.52056536 12.38449327 0 0 Z " fill="#D88F03" transform="translate(371,128)"/>
<path d="M0 0 C1.73299095 -0.03377747 1.73299095 -0.03377747 3.50099182 -0.0682373 C8.81425679 -0.13905621 14.12733958 -0.19699452 19.44091797 -0.23535156 C22.24167765 -0.25756052 25.04109063 -0.29921697 27.84130859 -0.35839844 C31.87610017 -0.44350379 35.90944021 -0.47068141 39.94506836 -0.49414062 C41.81425682 -0.54362854 41.81425682 -0.54362854 43.72120667 -0.59411621 C50.8812118 -0.5777031 54.99215786 0.18214776 60.13206482 5.32800293 C64.60162633 11.11297911 64.32801022 17.14749035 63.59741211 24.22460938 C62.16097262 27.98907149 59.41559153 30.43065499 56.59741211 33.22460938 C57.53713867 34.00384766 57.53713867 34.00384766 58.49584961 34.79882812 C59.31311523 35.49621094 60.13038086 36.19359375 60.97241211 36.91210938 C61.78452148 37.59660156 62.59663086 38.28109375 63.43334961 38.98632812 C67.14299244 42.82319697 67.88763978 46.42811193 67.90991211 51.66210938 C67.7549925 58.08266667 66.15713124 61.94251069 61.53491211 66.41210938 C57.34961302 69.81377799 52.77490675 71.01912905 47.59741211 72.22460938 C46.99112473 72.39813934 46.38483734 72.57166931 45.76017761 72.75045776 C43.3342084 73.28231256 41.14466299 73.35170257 38.66113281 73.35400391 C37.68364578 73.35715607 36.70615875 73.36030823 35.6990509 73.36355591 C34.65101791 73.36153168 33.60298492 73.35950745 32.52319336 73.35742188 C31.44361862 73.3583786 30.36404388 73.35933533 29.25175476 73.36032104 C26.97301169 73.361001 24.69426668 73.35915958 22.41552734 73.35498047 C18.91296081 73.34961405 15.41052161 73.35493973 11.90795898 73.36132812 C9.69637016 73.36066762 7.48478141 73.35938702 5.27319336 73.35742188 C4.21908768 73.35944611 3.16498199 73.36147034 2.07893372 73.36355591 C1.11090317 73.36040375 0.14287262 73.35725159 -0.85449219 73.35400391 C-1.71068649 73.35320831 -2.5668808 73.35241272 -3.44902039 73.35159302 C-5.40258789 73.22460938 -5.40258789 73.22460938 -6.40258789 72.22460938 C-6.50218941 70.02135964 -6.53058546 67.81487447 -6.53198242 65.609375 C-6.53373474 64.91833176 -6.53548706 64.22728851 -6.53729248 63.51530457 C-6.54171043 61.2204643 -6.53877322 58.92570049 -6.53540039 56.63085938 C-6.53607345 55.04284653 -6.53704349 53.45483378 -6.53829956 51.86682129 C-6.53977646 48.53441388 -6.53762225 45.20203322 -6.53295898 41.86962891 C-6.52726169 37.58862427 -6.53054074 33.30768232 -6.53653145 29.02667999 C-6.54013729 25.74627201 -6.53899837 22.465879 -6.53640366 19.18547058 C-6.53573445 17.60654188 -6.53656259 16.02761183 -6.53888321 14.44868469 C-6.54141012 12.24570085 -6.53756864 10.04281989 -6.53198242 7.83984375 C-6.53118683 6.58377319 -6.53039124 5.32770264 -6.52957153 4.03356934 C-6.31142976 -0.79186708 -4.34368566 0.08031534 0 0 Z M19.59741211 17.22460938 C19.59741211 20.19460938 19.59741211 23.16460937 19.59741211 26.22460938 C21.65924844 26.30611681 23.7220256 26.36402878 25.78491211 26.41210938 C27.50774414 26.46431641 27.50774414 26.46431641 29.26538086 26.51757812 C32.8678041 26.20083517 34.6910805 25.30994335 37.59741211 23.22460938 C37.21837003 19.93384941 37.21837003 19.93384941 35.59741211 17.22460938 C32.90086357 17.15141316 30.23049753 17.132184 27.53491211 17.16210938 C26.39699219 17.16887695 26.39699219 17.16887695 25.23608398 17.17578125 C23.3564934 17.18760257 21.47694312 17.2055386 19.59741211 17.22460938 Z M19.59741211 44.22460938 C19.59741211 47.52460938 19.59741211 50.82460938 19.59741211 54.22460938 C22.1601991 54.27881639 24.72182694 54.31837944 27.28491211 54.34960938 C28.00614258 54.36636719 28.72737305 54.383125 29.47045898 54.40039062 C33.64617992 54.43852506 36.84682591 54.10360128 40.59741211 52.22460938 C40.7642232 49.30808763 40.7642232 49.30808763 40.59741211 46.22460938 C38.83187711 44.04470811 38.83187711 44.04470811 36.6262207 43.99755859 C35.44793701 44.01326904 35.44793701 44.01326904 34.24584961 44.02929688 C33.39506836 44.03574219 32.54428711 44.0421875 31.66772461 44.04882812 C30.77827148 44.06558594 29.88881836 44.08234375 28.97241211 44.09960938 C27.62663086 44.11314453 27.62663086 44.11314453 26.25366211 44.12695312 C24.03479889 44.15055805 21.81607241 44.18642975 19.59741211 44.22460938 Z " fill="#E82932" transform="translate(340.402587890625,409.775390625)"/>
<path d="M0 0 C-0.0407666 0.59949463 -0.0815332 1.19898926 -0.12353516 1.81665039 C-0.30325121 4.56460963 -0.46425344 7.31336849 -0.625 10.0625 C-0.68945312 11.00544922 -0.75390625 11.94839844 -0.8203125 12.91992188 C-1.12926154 18.4616953 -0.72541976 22.66338573 1 28 C1.77025254 35.19172638 2.22210552 42.03155498 -2.24609375 48.02734375 C-4.42822376 50.48163251 -6.68428639 52.8608459 -8.9375 55.25 C-15.59537997 62.45037389 -19.09135579 70.13182587 -22.13916016 79.34399414 C-27.07794009 94.23407153 -34.55486018 102.34139706 -47.6875 110.5625 C-54.62198284 114.93007483 -60.33475025 120.00425075 -63 128 C-63.3705641 133.38943233 -62.43474288 137.19711384 -60.4375 142.1875 C-57.53153727 149.45634444 -57.53153727 149.45634444 -59 153 C-71.05716294 145.50944646 -78.87550982 132.92184751 -82.1875 119.30859375 C-83.20677774 114.88782823 -84.1234901 110.45110337 -85 106 C-84.01 105.505 -84.01 105.505 -83 105 C-83.04640625 104.18917969 -83.0928125 103.37835938 -83.140625 102.54296875 C-83.63469197 87.38569992 -77.89053921 78.48066364 -68.5625 67 C-66.22882095 62.51933623 -66.17757272 57.98979355 -66 53 C-62.34201054 56.4475298 -61.14246086 59.57460378 -60.84375 64.66015625 C-60.79392297 69.28784169 -61.07619976 73.4669337 -62 78 C-62.37830954 82.65611745 -62.48473791 86.72437391 -60.8125 91.125 C-59.12953177 93.19358459 -59.12953177 93.19358459 -56.5625 93.625 C-53.87075833 93.17893074 -53.87075833 93.17893074 -51.875 91.125 C-46.25442148 81.75736914 -45.57698501 71.66946306 -48.08984375 61.17578125 C-48.75417545 58.54811211 -49.44027336 55.92700642 -50.1328125 53.30664062 C-54.13114763 38.11065597 -54.13114763 38.11065597 -51.75 31.5625 C-50.22202456 29.32510739 -48.63315765 27.16072262 -47 25 C-46.89042969 25.72445313 -46.78085937 26.44890625 -46.66796875 27.1953125 C-45.43015396 34.74296364 -44.0839397 40.86667588 -38 46 C-31.701318 48.09956067 -26.11204906 47.03734969 -20 45 C-19.855625 44.38125 -19.71125 43.7625 -19.5625 43.125 C-19 41 -19 41 -18 39 C-17.78909034 36.97860841 -17.58263012 34.95658151 -17.40625 32.93188477 C-16.58442724 23.79552707 -12.83239925 0 0 0 Z " fill="#E78F03" transform="translate(375,257)"/>
<path d="M0 0 C0.95519531 -0.01224609 1.91039062 -0.02449219 2.89453125 -0.03710938 C12.6438936 -0.0574488 12.6438936 -0.0574488 15.75 2.1875 C17.13142458 4.82801998 18.18369627 7.22231836 19.1875 10 C19.78934886 11.56209291 20.39353776 13.12328614 21 14.68359375 C21.44279297 15.83964111 21.44279297 15.83964111 21.89453125 17.01904297 C23.04104469 19.92524512 24.34767294 22.74085333 25.6875 25.5625 C28.18705488 30.88155278 30.48952841 36.26407301 32.75 41.6875 C35.91427183 49.27455233 39.25642418 56.74556334 42.75 64.1875 C43.54813077 65.89282289 44.34050004 67.60086373 45.125 69.3125 C45.44210937 69.99570312 45.75921875 70.67890625 46.0859375 71.3828125 C46.75 73.1875 46.75 73.1875 46.75 76.1875 C37.84 76.1875 28.93 76.1875 19.75 76.1875 C18.1 72.2275 16.45 68.2675 14.75 64.1875 C5.84 63.8575 -3.07 63.5275 -12.25 63.1875 C-13.24 66.1575 -14.23 69.1275 -15.25 72.1875 C-15.91 73.5075 -16.57 74.8275 -17.25 76.1875 C-25.5 76.1875 -33.75 76.1875 -42.25 76.1875 C-43.40537734 72.72136799 -43.15134289 72.31443826 -41.72265625 69.12890625 C-41.35043945 68.28569824 -40.97822266 67.44249023 -40.59472656 66.57373047 C-40.1715918 65.64189941 -39.74845703 64.71006836 -39.3125 63.75 C-38.87518555 62.76660645 -38.43787109 61.78321289 -37.98730469 60.77001953 C-36.98854301 58.52637033 -35.98545678 56.28464324 -34.97900391 54.04443359 C-33.04648755 49.74127031 -31.13857874 45.42730906 -29.23046875 41.11328125 C-11.03267192 0.00732581 -11.03267192 0.00732581 0 0 Z M0.75 29.1875 C-0.9 33.8075 -2.55 38.4275 -4.25 43.1875 C-0.29 43.1875 3.67 43.1875 7.75 43.1875 C6.9669216 41.03851768 6.17328757 38.89337905 5.375 36.75 C4.93414062 35.55503906 4.49328125 34.36007812 4.0390625 33.12890625 C3.07914764 30.08553102 3.07914764 30.08553102 0.75 29.1875 Z " fill="#E72933" transform="translate(279.25,406.8125)"/>
<path d="M0 0 C1.46095093 0.01305176 1.46095093 0.01305176 2.95141602 0.02636719 C12.87769153 0.22916474 20.80113439 1.97045327 29.1875 7.375 C27.83224464 11.59275732 26.28549886 15.66921322 24.5625 19.75 C23.89347656 21.33941406 23.89347656 21.33941406 23.2109375 22.9609375 C22.87320313 23.75757813 22.53546875 24.55421875 22.1875 25.375 C18.74717374 25.51285279 16.25346287 25.20539209 13.0625 23.9375 C6.77523717 21.71536858 -0.31871901 20.37691354 -6.8125 22.375 C-6.8125 23.695 -6.8125 25.015 -6.8125 26.375 C-4.50064351 27.00246039 -2.18804316 27.62694147 0.125 28.25 C0.81287598 28.4370752 1.50075195 28.62415039 2.20947266 28.81689453 C5.81599109 29.78660767 9.37872965 30.61962219 13.0625 31.25 C20.70863672 32.89464073 26.8097254 38.08194901 31.1875 44.375 C33.22278564 50.76788439 32.80741315 57.41366527 30.140625 63.53515625 C26.14647706 71.24517133 20.06626804 74.19584799 12.1875 77.375 C-2.80950553 82.07555397 -18.40735062 78.54496438 -32.8359375 73.4375 C-34.8125 72.375 -34.8125 72.375 -35.8125 69.375 C-35.28344727 67.47387695 -35.28344727 67.47387695 -34.37890625 65.36328125 C-34.05986328 64.60595703 -33.74082031 63.84863281 -33.41210938 63.06835938 C-33.06986328 62.28267578 -32.72761719 61.49699219 -32.375 60.6875 C-31.86743164 59.49157227 -31.86743164 59.49157227 -31.34960938 58.27148438 C-30.5124299 56.30234393 -29.6635647 54.33817916 -28.8125 52.375 C-25.17273066 52.91809327 -21.82849383 53.60766282 -18.375 54.875 C-11.09343918 57.37118724 -2.31285142 58.87511714 5.1875 56.375 C4.8575 55.385 4.5275 54.395 4.1875 53.375 C2.37049246 52.47861237 2.37049246 52.47861237 0.0625 51.9375 C-1.28521484 51.56238281 -1.28521484 51.56238281 -2.66015625 51.1796875 C-4.93307693 50.59948718 -7.21271047 50.04536402 -9.49609375 49.5078125 C-18.37417733 47.34417078 -26.79635917 45.04264048 -32.3125 37.1875 C-35.42801641 31.34590673 -35.94324461 25.27729797 -34.09375 18.89453125 C-30.3353527 9.84709905 -23.92795475 5.66852257 -15.2578125 1.78125 C-10.20106422 -0.07461914 -5.3364295 -0.07879353 0 0 Z " fill="#E82933" transform="translate(451.8125,405.625)"/>
<path d="M0 0 C0.99 0.495 0.99 0.495 2 1 C2.41295044 11.78259494 1.5676626 21.54858143 -5.72265625 29.99609375 C-15.88939887 40.68835388 -28.75773423 46.08545808 -42.4375 50.9375 C-50.86170293 54.29867188 -56.26280929 60.30089025 -60.02734375 68.41015625 C-62.93235963 76.14519853 -63.58754243 83.47472619 -64.12304688 91.64257812 C-65.14699715 104.9354822 -69.25357102 114.71186112 -78.9375 124.0625 C-89.74843789 133.10470347 -103.25309714 138.59685771 -115.89355469 144.53564453 C-123.10030001 147.96485602 -129.77246565 151.71543939 -136.328125 156.2578125 C-139 158 -139 158 -141.59765625 158.99609375 C-144.46325302 160.19358703 -146.04111431 161.70808199 -148.1875 163.9375 C-148.86167969 164.62714844 -149.53585938 165.31679687 -150.23046875 166.02734375 C-152.15626858 168.07983241 -152.15626858 168.07983241 -154 171 C-154.66 171 -155.32 171 -156 171 C-149.07127981 147.91553224 -126.91123612 131.33702931 -108.16015625 117.9765625 C-97.80161807 110.43342188 -91.95449202 99.64752306 -89.875 87.08984375 C-89.41864537 84.00748298 -88.99782837 80.92152446 -88.578125 77.83398438 C-86.97876309 67.04518527 -83.30566041 57.33044403 -74.77734375 50.12109375 C-62.89048716 41.39904209 -49.31575232 37.40063767 -35.10327148 34.19580078 C-18.21221431 30.53065547 -18.21221431 30.53065547 -6 19 C-2.14719554 12.68684486 -0.35745933 7.38749291 0 0 Z " fill="#DC8605" transform="translate(311,59)"/>
<path d="M0 0 C0.66 0.33 1.32 0.66 2 1 C1.57589844 1.44988281 1.15179688 1.89976562 0.71484375 2.36328125 C-12.19497233 16.5215191 -28.46609782 41.71238085 -30.296875 61.15234375 C-29.72216428 66.66502948 -25.90891189 70.2410218 -21.9609375 73.87890625 C-18.378993 76.9748894 -18.378993 76.9748894 -13.9453125 78.08984375 C-10.77021372 76.31102335 -9.99921246 73.3189226 -9 70 C-8.48643452 67.70316468 -8.06613071 65.40593109 -7.67211914 63.08569336 C-5.39013798 49.78315541 -0.45825659 43.31358047 10.38061523 35.53491211 C13.87521177 33.01635466 16.4220946 30.4372072 19 27 C19.98230498 25.9826127 20.97469597 24.97403883 22 24 C22 28 22 32 22 36 C22.47308594 35.40574219 22.94617188 34.81148437 23.43359375 34.19921875 C24.835097 32.44255873 26.24035753 30.68889275 27.6484375 28.9375 C29.20804228 26.98928938 30.75511643 25.03097687 32.2890625 23.0625 C37.68991217 16.23255952 42.51095604 10.82968132 51 8 C52.94874202 13.29408249 50.68342244 17.47685714 48.75 22.4375 C48.00348284 24.41780919 47.25741372 26.39828732 46.51171875 28.37890625 C46.10614746 29.44383301 45.70057617 30.50875977 45.28271484 31.60595703 C43.22888326 37.04036256 41.24976078 42.50199049 39.2611084 47.96047974 C35.54190024 58.15288424 31.78452451 68.33170265 28 78.5 C27.63849854 79.4782373 27.27699707 80.45647461 26.90454102 81.46435547 C23.25786723 91.22052659 23.25786723 91.22052659 21 95 C10.46530317 98.51156561 -6.56405931 89.71506459 -16 85 C-23.09682988 80.87515646 -29.28762833 75.89447748 -35 70 C-35.59425781 69.43796875 -36.18851563 68.8759375 -36.80078125 68.296875 C-39.66588055 65.36514548 -41.42781722 63.04519999 -41.6875 58.875 C-40.58014469 44.62381858 -29.93147083 27.15155883 -20 17 C-19.34 17 -18.68 17 -18 17 C-18 16.34 -18 15.68 -18 15 C-17.34 15 -16.68 15 -16 15 C-15.731875 14.360625 -15.46375 13.72125 -15.1875 13.0625 C-14 11 -14 11 -11 10 C-11 9.34 -11 8.68 -11 8 C-9.217871 6.55925285 -7.37339724 5.19489351 -5.5 3.875 C-4.4790625 3.15054688 -3.458125 2.42609375 -2.40625 1.6796875 C-1.6121875 1.12539062 -0.818125 0.57109375 0 0 Z " fill="#DE750B" transform="translate(203,209)"/>
<path d="M0 0 C1.91145361 0.01005687 3.82291238 0.0191779 5.734375 0.02734375 C10.36471349 0.0491267 14.99479794 0.08350501 19.625 0.125 C10.03918403 19.87898366 -14.71784903 33.23881114 -33.375 43.125 C-34.22964844 43.59292969 -35.08429688 44.06085938 -35.96484375 44.54296875 C-51.27160445 52.62807825 -71.68327147 61.39839432 -89.1875 61.1875 C-90.16332031 61.17847656 -91.13914062 61.16945313 -92.14453125 61.16015625 C-93.24861328 61.14275391 -93.24861328 61.14275391 -94.375 61.125 C-94.705 60.465 -95.035 59.805 -95.375 59.125 C-94.42625 58.650625 -93.4775 58.17625 -92.5 57.6875 C-78.16343116 49.36304067 -70.13987867 35.44447723 -63.19921875 20.94921875 C-62.89806152 20.32708496 -62.5969043 19.70495117 -62.28662109 19.06396484 C-61.65139185 17.71286932 -61.04710479 16.34697645 -60.46728516 14.97119141 C-58.87818243 11.38445311 -57.91477468 9.48813493 -54.59375 7.25390625 C-51.05338595 6.0122009 -47.51945492 4.94107396 -43.875 4.0625 C-42.6065625 3.74152344 -41.338125 3.42054688 -40.03125 3.08984375 C-26.59692866 0.17260809 -13.68299807 -0.12638531 0 0 Z " fill="#F13A0D" transform="translate(181.375,348.875)"/>
<path d="M0 0 C0 17.82 0 35.64 0 54 C10.89 54 21.78 54 33 54 C33 60.93 33 67.86 33 75 C25.32463023 75.02255523 17.64927271 75.04091753 9.97387791 75.05181217 C6.41022578 75.05703995 2.84659743 75.06413569 -0.71704102 75.07543945 C-4.81006097 75.08834176 -8.9030558 75.09322906 -12.99609375 75.09765625 C-14.92418129 75.10539818 -14.92418129 75.10539818 -16.89122009 75.11329651 C-18.66294334 75.11340981 -18.66294334 75.11340981 -20.47045898 75.11352539 C-22.03932106 75.11685631 -22.03932106 75.11685631 -23.63987732 75.12025452 C-26 75 -26 75 -27 74 C-27.09919051 72.12004069 -27.1279935 70.23633348 -27.12939453 68.35375977 C-27.13254669 67.14482559 -27.13569885 65.93589142 -27.13894653 64.69032288 C-27.13591019 62.71085915 -27.13591019 62.71085915 -27.1328125 60.69140625 C-27.13348622 59.32673627 -27.13445682 57.96206642 -27.13571167 56.59739685 C-27.1371899 53.72645941 -27.13503309 50.85555298 -27.13037109 47.98461914 C-27.12472209 44.33001715 -27.12792098 40.67548939 -27.13394356 37.02089024 C-27.13758741 34.19562744 -27.13639235 31.37038169 -27.13381577 28.54511833 C-27.13283523 26.5501437 -27.13584356 24.55516838 -27.13894653 22.56019592 C-27.12129168 15.63021284 -26.82661513 8.88175567 -26 2 C-18.08 1.505 -18.08 1.505 -10 1 C-10 0.67 -10 0.34 -10 0 C-5.97128525 -1.03595522 -4.34944269 -0.86988854 0 0 Z " fill="#E72933" transform="translate(200,408)"/>
<path d="M0 0 C0.66 0 1.32 0 2 0 C2.98355849 3.06110696 3.96106019 6.1241156 4.9375 9.1875 C5.21529297 10.05181641 5.49308594 10.91613281 5.77929688 11.80664062 C6.04677734 12.64775391 6.31425781 13.48886719 6.58984375 14.35546875 C6.83597412 15.12528076 7.08210449 15.89509277 7.33569336 16.68823242 C9.35003799 23.6980925 10.0060498 30.5675948 7.9375 37.625 C5.45372532 41.95157525 2.3756148 45.3537663 -1 49 C-2.15196985 50.32803511 -3.29828008 51.66101166 -4.4375 53 C-5.283125 53.99 -6.12875 54.98 -7 56 C-6.66226563 56.86882812 -6.32453125 57.73765625 -5.9765625 58.6328125 C-5.53054688 59.78523438 -5.08453125 60.93765625 -4.625 62.125 C-4.18414062 63.26195312 -3.74328125 64.39890625 -3.2890625 65.5703125 C-0.18173901 73.83767621 1.11389162 79.74568518 -2.5625 88.0625 C-7.42176385 96.76796562 -15.71805585 102.16919454 -23.73046875 107.703125 C-34.78705888 115.47047864 -43.6745672 126.69826882 -47 140 C-49.97 140 -52.94 140 -56 140 C-56.16822266 138.97519531 -56.16822266 138.97519531 -56.33984375 137.9296875 C-57.38215048 133.30406593 -59.22922391 128.98415365 -60.94140625 124.5703125 C-62.26642371 120.10143442 -62.72531857 116.22996878 -61.265625 111.7421875 C-60.93046875 111.12601562 -60.5953125 110.50984375 -60.25 109.875 C-59.92515625 109.25367188 -59.6003125 108.63234375 -59.265625 107.9921875 C-56.0129913 102.87230111 -52.47638927 99.73319865 -47.3125 96.625 C-46.05563045 95.83597338 -44.80042056 95.04429693 -43.546875 94.25 C-42.63518555 93.67378906 -42.63518555 93.67378906 -41.70507812 93.0859375 C-29.48601921 85.30381063 -24.4547595 76.09266252 -20.1875 62.55883789 C-17.02636359 52.67508738 -12.09066001 45.62500068 -4.87036133 38.28369141 C0.34369359 32.91029512 2.42026939 28.56490761 2.3125 21.0625 C2.20989855 15.92162721 1.58136225 11.8429219 0 7 C-0.07403678 4.66784156 -0.09515886 2.33139212 0 0 Z " fill="#D37C04" transform="translate(373,271)"/>
<path d="M0 0 C0.495 1.485 0.495 1.485 1 3 C-10.9404069 14.39766114 -24.26832151 16.6525287 -40.02929688 19.46386719 C-44.05229163 20.18991062 -48.05722173 20.99532973 -52.0625 21.8125 C-55.03125 22.40625 -55.03125 22.40625 -58 23 C-57.97679687 23.66644531 -57.95359375 24.33289063 -57.9296875 25.01953125 C-57.75320918 34.03253099 -58.79297086 42.52428013 -62 51 C-62.33 51 -62.66 51 -63 51 C-63.66 48.03 -64.32 45.06 -65 42 C-65.37511719 43.423125 -65.75023437 44.84625 -66.13671875 46.3125 C-66.65296175 48.20851973 -67.16992737 50.1043428 -67.6875 52 C-67.93177734 52.93457031 -68.17605469 53.86914062 -68.42773438 54.83203125 C-69.92551469 60.25437518 -71.74746002 64.63060358 -74.87280273 69.3059082 C-78.08101722 74.12761067 -78.3839637 78.69334133 -78.625 84.3125 C-78.66367187 85.05306641 -78.70234375 85.79363281 -78.7421875 86.55664062 C-78.83581705 88.37071309 -78.91896851 90.18532116 -79 92 C-84.52678571 86.61607143 -84.52678571 86.61607143 -86 83 C-87.07501576 88.18629555 -87.08261177 93.10461286 -86.9921875 98.3671875 C-86.97227109 100.23110983 -86.95334667 102.09504297 -86.93530273 103.95898438 C-86.9248996 104.92666748 -86.91449646 105.89435059 -86.90377808 106.89135742 C-86.54728562 143.85164876 -86.54728562 143.85164876 -91 161 C-91.66 161 -92.32 161 -93 161 C-93.52787642 159.02270019 -94.04712903 157.04309608 -94.5625 155.0625 C-94.99755859 153.40927734 -94.99755859 153.40927734 -95.44140625 151.72265625 C-95.62574219 150.82417969 -95.81007813 149.92570313 -96 149 C-95.67 148.67 -95.34 148.34 -95 148 C-94.92994406 140.06966743 -96.24773642 132.22755763 -97.50488281 124.42456055 C-102.20221909 95.04975577 -101.0783898 68.39149604 -84 43 C-79.24939823 36.57023349 -74.2842251 30.94715593 -68 26 C-77.95323469 30.40822196 -86.01095528 35.05847491 -93.7421875 42.77734375 C-96 45 -96 45 -98 46 C-94.14387474 34.77128292 -83.79277088 27.84663427 -73.59082031 22.81079102 C-65.48891218 19.12210044 -57.43730822 17.48210769 -48.73477173 15.9743042 C-22.52056536 12.38449327 -22.52056536 12.38449327 0 0 Z " fill="#D48B04" transform="translate(371,128)"/>
<path d="M0 0 C-0.57459437 6.00036354 -2.35274595 11.07405979 -4.5625 16.66015625 C-5.08952515 18.02230507 -5.08952515 18.02230507 -5.62719727 19.41197205 C-6.74448483 22.29825174 -7.8712719 25.18067691 -9 28.0625 C-10.12813505 30.94810761 -11.2539762 33.83450925 -12.37280273 36.72373962 C-13.06725629 38.51673279 -13.76704404 40.30767177 -14.47290039 42.09620667 C-16.14011606 46.39704582 -17.46730192 50.38156392 -18 55 C-17.360625 55.268125 -16.72125 55.53625 -16.0625 55.8125 C-14 57 -14 57 -13 60 C-26.86027149 61.09181037 -40.69413705 61.15381032 -54.59179688 61.13037109 C-58.36071818 61.12502028 -62.12951984 61.13034073 -65.8984375 61.13671875 C-79.29869839 61.14002142 -92.62898797 60.90991696 -106 60 C-106 59.67 -106 59.34 -106 59 C-104.82566406 58.70867187 -103.65132813 58.41734375 -102.44140625 58.1171875 C-85.33985949 53.79839814 -69.5452389 48.38251112 -54 40 C-53.09338623 39.51660156 -53.09338623 39.51660156 -52.16845703 39.0234375 C-34.49032608 29.53078765 -17.57184709 17.33402438 -4.76953125 1.765625 C-3 0 -3 0 0 0 Z " fill="#D13B21" transform="translate(204,350)"/>
<path d="M0 0 C0.66 0 1.32 0 2 0 C7.08725378 10.11107546 10.96788262 17.8490286 7.296875 29.16796875 C3.12118686 38.98083587 -6.27745124 44.86488231 -14.73046875 50.703125 C-25.78705888 58.47047864 -34.6745672 69.69826882 -38 83 C-40.97 83 -43.94 83 -47 83 C-43.44831587 59.72636255 -43.44831587 59.72636255 -33.70703125 51.84765625 C-29.37409597 48.89025598 -24.84114447 46.27106561 -20.25488281 43.7265625 C-12.98700896 39.64191761 -6.50502772 35.09218513 -2.859375 27.3984375 C-1.42690783 21.73368098 -1.69972943 16.03519361 -1.92016602 10.22436523 C-1.96935181 8.89320679 -1.96935181 8.89320679 -2.01953125 7.53515625 C-2.06182861 6.734729 -2.10412598 5.93430176 -2.14770508 5.10961914 C-2 3 -2 3 0 0 Z " fill="#C65C23" transform="translate(364,328)"/>
<path d="M0 0 C0.66 0.33 1.32 0.66 2 1 C1.57589844 1.44988281 1.15179688 1.89976562 0.71484375 2.36328125 C-12.19497233 16.5215191 -28.46609782 41.71238085 -30.296875 61.15234375 C-29.7252958 66.63499159 -25.95931858 70.29159227 -21.92578125 73.80859375 C-18.96688476 76.08929585 -16.56535098 77.81154967 -13 79 C-13 79.66 -13 80.32 -13 81 C-12.32710937 81.25910156 -11.65421875 81.51820313 -10.9609375 81.78515625 C-7.4599354 83.22158323 -4.04482958 84.82029143 -0.625 86.4375 C1.91161463 87.63620509 4.45284524 88.82385747 7 90 C7.62044189 90.29189209 8.24088379 90.58378418 8.88012695 90.88452148 C12.16295322 92.37591417 14.81675896 93.37806532 18.4375 93.1875 C19.613125 93.125625 20.78875 93.06375 22 93 C21.34 93.99 20.68 94.98 20 96 C-0.60091252 94.77422593 -20.75862364 84.64555566 -35 70 C-35.59425781 69.43796875 -36.18851563 68.8759375 -36.80078125 68.296875 C-39.66588055 65.36514548 -41.42781722 63.04519999 -41.6875 58.875 C-40.58014469 44.62381858 -29.93147083 27.15155883 -20 17 C-19.34 17 -18.68 17 -18 17 C-18 16.34 -18 15.68 -18 15 C-17.34 15 -16.68 15 -16 15 C-15.731875 14.360625 -15.46375 13.72125 -15.1875 13.0625 C-14 11 -14 11 -11 10 C-11 9.34 -11 8.68 -11 8 C-9.217871 6.55925285 -7.37339724 5.19489351 -5.5 3.875 C-4.4790625 3.15054688 -3.458125 2.42609375 -2.40625 1.6796875 C-1.6121875 1.12539062 -0.818125 0.57109375 0 0 Z " fill="#EC5A07" transform="translate(203,209)"/>
<path d="M0 0 C0.99 0.495 0.99 0.495 2 1 C1.030625 1.61875 0.06125 2.2375 -0.9375 2.875 C-4.02835362 4.65678846 -4.02835362 4.65678846 -5 7 C-7.19873047 7.72680664 -7.19873047 7.72680664 -10.1171875 8.41015625 C-11.72654175 8.80424683 -11.72654175 8.80424683 -13.3684082 9.20629883 C-14.5255835 9.48884521 -15.68275879 9.7713916 -16.875 10.0625 C-39.19584021 15.82335746 -56.17373204 25.06957381 -72 42 C-72.33 41.34 -72.66 40.68 -73 40 C-72.00390625 37.6171875 -72.00390625 37.6171875 -70.5625 34.875 C-70.08941406 33.96492188 -69.61632812 33.05484375 -69.12890625 32.1171875 C-68.57009766 31.06917969 -68.57009766 31.06917969 -68 30 C-79.11977189 38.98246509 -84.9899932 49.27751807 -91 62 C-91.33 62 -91.66 62 -92 62 C-91.50763698 48.21383545 -85.29957176 33.71435573 -75.25 24.25 C-70.87450188 20.65495126 -66.18716918 18.22418349 -61 16 C-60.19175781 15.65195313 -59.38351563 15.30390625 -58.55078125 14.9453125 C-47.46952275 10.56711236 -35.56843476 8.26822641 -23.75 7.0625 C-15.34389887 6.13597583 -7.58360972 3.79180486 0 0 Z " fill="#E7AC07" transform="translate(283,80)"/>
<path d="M0 0 C10.89 0 21.78 0 33 0 C33.020625 3.114375 33.04125 6.22875 33.0625 9.4375 C33.071604 10.42032959 33.08070801 11.40315918 33.09008789 12.41577148 C33.09258545 13.18477783 33.09508301 13.95378418 33.09765625 14.74609375 C33.10289307 15.53685303 33.10812988 16.3276123 33.11352539 17.14233398 C33 19 33 19 32 20 C29.72052208 20.1002093 27.43792865 20.13081303 25.15625 20.1328125 C24.47195923 20.13376923 23.78766846 20.13472595 23.0826416 20.13571167 C21.63338123 20.1363933 20.18411782 20.13454023 18.73486328 20.13037109 C16.50937072 20.12502252 14.28407999 20.1303166 12.05859375 20.13671875 C10.65364539 20.13605797 9.24869715 20.1347768 7.84375 20.1328125 C6.55662109 20.13168457 5.26949219 20.13055664 3.94335938 20.12939453 C1 20 1 20 0 19 C-0.08651611 17.58429877 -0.10704904 16.164405 -0.09765625 14.74609375 C-0.09515869 13.9770874 -0.09266113 13.20808105 -0.09008789 12.41577148 C-0.07643188 10.9415271 -0.07643188 10.9415271 -0.0625 9.4375 C-0.041875 6.323125 -0.02125 3.20875 0 0 Z " fill="#E82C35" transform="translate(126,442)"/>
<path d="M0 0 C0.80816162 0.14099121 1.61632324 0.28198242 2.44897461 0.42724609 C20.27727267 3.50513255 37.91422639 5.95428228 56 7 C56 10.79557881 55.49821059 12.62902617 54 16 C53.42175476 15.83799606 52.84350952 15.67599213 52.2477417 15.50907898 C48.60775639 14.6846782 44.91791192 14.83703605 41.203125 14.83203125 C40.33669373 14.82870285 39.47026245 14.82537445 38.57757568 14.82194519 C36.7384087 14.81688324 34.89923254 14.81453664 33.06005859 14.81469727 C30.30159372 14.81254034 27.5435488 14.79446014 24.78515625 14.77539062 C14.01977061 14.74227196 3.64473868 15.33380953 -7 17 C-5.69886826 12.90204302 -4.18241122 9.02520316 -2.375 5.125 C-1.92898437 4.15820312 -1.48296875 3.19140625 -1.0234375 2.1953125 C-0.68570313 1.47085937 -0.34796875 0.74640625 0 0 Z " fill="#A6543C" transform="translate(151,335)"/>
<path d="M0 0 C0.495 1.485 0.495 1.485 1 3 C-10.9404069 14.39766114 -24.26832151 16.6525287 -40.02929688 19.46386719 C-44.05229163 20.18991062 -48.05722173 20.99532973 -52.0625 21.8125 C-55.03125 22.40625 -55.03125 22.40625 -58 23 C-58.0928125 23.928125 -58.0928125 23.928125 -58.1875 24.875 C-59 27 -59 27 -61.296875 28.0625 C-62.18890625 28.371875 -63.0809375 28.68125 -64 29 C-77.50489652 37.67467806 -86.09426943 50.84960729 -93 65 C-94.21777938 61.34666186 -93.37479765 60.0599687 -91.75195312 56.70678711 C-91.40068359 56.01979736 -91.04941406 55.33280762 -90.6875 54.625 C-90.32720703 53.91545166 -89.96691406 53.20590332 -89.59570312 52.47485352 C-84.19221819 42.19143254 -77.26456548 33.1166355 -68 26 C-77.95323469 30.40822196 -86.01095528 35.05847491 -93.7421875 42.77734375 C-96 45 -96 45 -98 46 C-94.14387474 34.77128292 -83.79277088 27.84663427 -73.59082031 22.81079102 C-65.48891218 19.12210044 -57.43730822 17.48210769 -48.73477173 15.9743042 C-22.52056536 12.38449327 -22.52056536 12.38449327 0 0 Z " fill="#995644" transform="translate(371,128)"/>
<path d="M0 0 C3.96755922 3.79505664 3.96755922 3.79505664 4.0546875 7.03125 C3.54859817 13.98447734 1.39723699 18.97490028 -2 25 C-10.08692546 39.62092683 -12.57591916 55.34786629 -8.6875 71.6875 C-7.35596321 76.21472509 -5.68238734 80.59374745 -4 85 C-4 85.99 -4 86.98 -4 88 C-4.66 88 -5.32 88 -6 88 C-13.84959452 77.09563717 -17.22967763 65.13765551 -19 52 C-18.34 52 -17.68 52 -17 52 C-17.04640625 51.18917969 -17.0928125 50.37835938 -17.140625 49.54296875 C-17.63469197 34.38569992 -11.89053921 25.48066364 -2.5625 14 C-0.22882095 9.51933623 -0.17757272 4.98979355 0 0 Z " fill="#DEB204" transform="translate(309,310)"/>
<path d="M0 0 C2.23235697 1.24456167 4.46079662 2.4953939 6.6875 3.75 C7.31333984 4.09804688 7.93917969 4.44609375 8.58398438 4.8046875 C12.33744549 6.92706342 15.69859272 9.19727565 19 12 C11.67741859 15.36362479 4.27476471 17.9481036 -3.4375 20.25 C-4.30149414 20.50797363 -5.16548828 20.76594727 -6.05566406 21.03173828 C-12.07986985 22.79810217 -17.49135882 24.13865833 -23.8125 24.0625 C-24.78832031 24.05347656 -25.76414062 24.04445313 -26.76953125 24.03515625 C-27.50558594 24.02355469 -28.24164063 24.01195312 -29 24 C-29.33 23.34 -29.66 22.68 -30 22 C-29.05125 21.525625 -28.1025 21.05125 -27.125 20.5625 C-22.71345346 18.06321658 -19.26370468 14.68038482 -15.5625 11.25 C-12.54994087 8.60482613 -9.39278351 6.42496672 -6.0078125 4.2890625 C-3.92534357 2.95206883 -1.96319718 1.50541129 0 0 Z " fill="#F60B0F" transform="translate(116,386)"/>
<path d="M0 0 C1.1536745 3.4610235 0.84328924 3.83491112 -0.4375 7.0625 C-5.06310582 21.71025177 -1.65671993 36.39254141 4.625 49.9375 C16.85004802 73.18966419 36.30610884 89.45473159 61.3125 97.625 C80.34496538 103.35397109 100.14453479 104.83106036 119.875 106.125 C123.33738846 106.35782663 126.79942118 106.59425152 130.26101685 106.83859253 C132.38754403 106.98820033 134.51455149 107.13119646 136.64205933 107.2661438 C142.61531402 107.68049916 148.18724921 108.55337424 154 110 C154 110.33 154 110.66 154 111 C153.31301025 110.94465088 152.62602051 110.88930176 151.91821289 110.83227539 C139.30406374 109.82753463 126.71077662 108.92369296 114.0625 108.5 C78.31194105 107.19596883 42.49863887 100.85593146 16.75 73.75 C3.68080293 58.70448533 -5.74761808 40.84894451 -5.296875 20.54296875 C-4.70475243 13.47645336 -3.44858485 6.26742812 0 0 Z " fill="#642C0F" transform="translate(112,224)"/>
<path d="M0 0 C0.99 0.99 0.99 0.99 2 2 C1.56981617 9.52821704 -3.63391414 15.15963959 -8.82421875 20.09375 C-18.19227962 28.301315 -29.81677743 32.81577496 -41.4375 36.9375 C-49.86170293 40.29867188 -55.26280929 46.30089025 -59.02734375 54.41015625 C-61.60140669 61.26398649 -62.47163882 67.69210267 -63 74.9375 C-63.48181092 81.51778804 -64.19823729 87.6412791 -66 94 C-66.66 94 -67.32 94 -68 94 C-67.90563557 89.46475334 -67.7993707 84.9299893 -67.68261719 80.39526367 C-67.64460557 78.85627645 -67.60970707 77.31720876 -67.578125 75.77807617 C-67.08535779 52.05595475 -67.08535779 52.05595475 -58.57421875 42.37890625 C-52.16401631 36.25501559 -43.42338998 33.35965649 -35.3203125 30.125 C-21.43718723 24.54170401 -8.1168647 18.43894778 -1.625 4.0625 C-1.07092955 2.71336099 -0.52459835 1.36086984 0 0 Z " fill="#AA6039" transform="translate(310,73)"/>
<path d="M0 0 C-8.76598779 14.57239771 -20.95225829 31.20285869 -36 40 C-36.66 40 -37.32 40 -38 40 C-36.54764858 36.89550278 -34.79401934 34.02993205 -32.97924805 31.12597656 C-28.77959769 24.37349417 -25.27885203 17.60579303 -22.3840332 10.19238281 C-20.84638111 6.38706758 -19.6748697 3.95289305 -16 2 C-13.125 1.015625 -13.125 1.015625 -10 0.25 C-8.453125 -0.14445312 -8.453125 -0.14445312 -6.875 -0.546875 C-4.12569023 -0.98019013 -2.58659465 -0.92023079 0 0 Z " fill="#ED5807" transform="translate(143,354)"/>
<path d="M0 0 C1.6772906 3.3545812 0.08001213 6.86231459 -0.75 10.375 C-0.93973389 11.188479 -1.12946777 12.00195801 -1.32495117 12.84008789 C-1.70755604 14.4758248 -2.09253727 16.11100782 -2.47998047 17.74560547 C-2.91855888 19.64693553 -3.31038913 21.5589601 -3.69140625 23.47265625 C-6.69973911 37.83318858 -15.6919718 47.01012806 -27.125 55.375 C-27.72320557 55.81658447 -28.32141113 56.25816895 -28.93774414 56.71313477 C-32.2474663 59.06290418 -34.93186072 60.58551034 -39 61 C-36.7501378 57.03907756 -34.14807778 53.56116518 -31.3125 50 C-26.31666012 43.63922199 -22.08747239 36.97610511 -18 30 C-16.75453595 32.49092811 -17.2232422 33.41080733 -18 36 C-12.09584067 29.46687525 -9.73746169 22.2493778 -7 14 C-6.31028768 12.11807066 -5.60412879 10.2420116 -4.875 8.375 C-4.58367187 7.61960938 -4.29234375 6.86421875 -3.9921875 6.0859375 C-2.9085453 3.80772909 -1.57377516 1.96499611 0 0 Z " fill="#E8A405" transform="translate(200,133)"/>
<path d="M0 0 C5.28 1.32 10.56 2.64 16 4 C10.32178218 19.19306931 10.32178218 19.19306931 8 22 C5.24015093 22.99401343 2.84140087 23.68374218 0 24.25 C-1.43761318 24.56719579 -2.87511753 24.88488534 -4.3125 25.203125 C-5.529375 25.46609375 -6.74625 25.7290625 -8 26 C-8.99 26.33 -9.98 26.66 -11 27 C-9.48526781 19.01323028 -6.83197448 11.59877122 -4 4 C-3.34 4 -2.68 4 -2 4 C-1.34 2.68 -0.68 1.36 0 0 Z " fill="#B97222" transform="translate(135,331)"/>
<path d="M0 0 C0.99 0 1.98 0 3 0 C6.90644416 6.90603522 8.06602617 13.10709913 7 21 C4.97133513 27.47653971 0.66947086 32.90255861 -4.625 37.0625 C-8.92425633 40.56978806 -10.42417229 44.78764679 -12 50 C-12.66 49.67 -13.32 49.34 -14 49 C-14.08228759 47.00071638 -14.13976302 45.00040682 -14.1875 43 C-14.22230469 41.88625 -14.25710938 40.7725 -14.29296875 39.625 C-13.68215859 32.06724226 -10.43060128 26.70064747 -5.875 20.8125 C-1.54390561 15.19925443 0.16841078 11.28352206 0.0625 4.1875 C0.05347656 3.39730469 0.04445313 2.60710937 0.03515625 1.79296875 C0.02355469 1.20128906 0.01195312 0.60960937 0 0 Z " fill="#ED530A" transform="translate(369,219)"/>
<path d="M0 0 C4.2380871 3.01472175 8.08317069 6.04819094 10 11 C10.57291448 15.22617436 10.67904173 18.83997037 8.5 22.5625 C8.005 23.036875 7.51 23.51125 7 24 C5.47277691 22.47277691 5.84958402 20.93577355 5.75 18.8125 C5.21579772 13.64306563 3.79018124 11.53750249 0 8 C-6.63455239 3.9916246 -13.47589741 2.89205651 -21.0625 4.75 C-28.53416975 7.92943393 -31.69636242 11.78186355 -35 19 C-35.72881089 20.97820098 -36.42771172 22.97097793 -37 25 C-37.66 25 -38.32 25 -39 25 C-39.68206766 16.98570496 -36.7932768 10.94289697 -31.875 4.6875 C-23.46285109 -4.31781325 -10.72862146 -5.42117621 0 0 Z " fill="#AD6834" transform="translate(386,22)"/>
<path d="M0 0 C-5.32771153 1.8788201 -10.63840231 3.45947797 -16.14111328 4.73583984 C-33.10202881 8.67349293 -50.60765319 13.93943323 -61 29 C-64.84430139 35.32449584 -65.52343313 42.17790621 -66.4375 49.375 C-68.24134213 63.41508826 -72.68966063 75.8650976 -83.76171875 85.37109375 C-86.79297981 87.65741745 -89.88215446 89.83355585 -93 92 C-95.26407514 93.66898005 -97.50709725 95.36522261 -99.75 97.0625 C-101.5 98.375 -103.25 99.6875 -105 101 C-105.66 100.67 -106.32 100.34 -107 100 C-101.80013632 95.23221669 -96.3635413 90.98046133 -90.61328125 86.89453125 C-86.23197514 83.71824805 -82.56558014 80.8312441 -79.4375 76.375 C-78.87933594 75.59898437 -78.32117188 74.82296875 -77.74609375 74.0234375 C-72.54901812 65.02447433 -70.96172563 56.01241677 -69.578125 45.83398438 C-67.97876309 35.04518527 -64.30566041 25.33044403 -55.77734375 18.12109375 C-42.96659542 8.72113103 -28.06273111 4.91791057 -12.875 1.1875 C-11.48692139 0.84041992 -11.48692139 0.84041992 -10.07080078 0.48632812 C-9.1992334 0.27814453 -8.32766602 0.06996094 -7.4296875 -0.14453125 C-6.64835449 -0.33378174 -5.86702148 -0.52303223 -5.06201172 -0.71801758 C-3 -1 -3 -1 0 0 Z " fill="#744E02" transform="translate(292,91)"/>
<path d="M0 0 C1.22551877 3.6765563 0.60652364 5.22301832 -0.375 8.9375 C-1.50660878 13.45890574 -2.16314128 17.59598219 -2.3125 22.25 C-2.81444289 29.83937652 -6.23796737 34.54485989 -11.8125 39.5 C-17.03790506 41.95901415 -21.62539467 42.74497422 -27.1875 41 C-32.0701977 37.52785941 -36.54650959 32.97546057 -38 27 C-37.70885602 25.65682314 -37.38087152 24.32053995 -37 23 C-36.75765625 23.60328125 -36.5153125 24.2065625 -36.265625 24.828125 C-33.65285274 31.11955171 -33.65285274 31.11955171 -29 36 C-22.701318 38.09956067 -17.11204906 37.03734969 -11 35 C-10.855625 34.38125 -10.71125 33.7625 -10.5625 33.125 C-10 31 -10 31 -9 29 C-8.78900053 26.97774762 -8.58231007 24.95488742 -8.40454102 22.92944336 C-6.98076048 6.99239033 -6.98076048 6.99239033 -3 1 C-2.01 0.67 -1.02 0.34 0 0 Z " fill="#E2A504" transform="translate(366,267)"/>
<path d="M0 0 C-0.33 0.66 -0.66 1.32 -1 2 C0.0209375 2.37125 0.0209375 2.37125 1.0625 2.75 C4.57165146 4.24325594 7.7021119 6.08122874 11 8 C12.3290873 8.67509196 13.66143612 9.34389867 15 10 C-0.70232284 10.10983009 -16.32997158 10.08069161 -32 9 C-32 8.67 -32 8.34 -32 8 C-30.75605469 7.68546875 -29.51210937 7.3709375 -28.23046875 7.046875 C-19.96790892 4.9299728 -11.84696494 2.83604495 -3.93359375 -0.3984375 C-2 -1 -2 -1 0 0 Z " fill="#D61922" transform="translate(130,401)"/>
<path d="M0 0 C0.33 0 0.66 0 1 0 C1.14695312 1.03833984 1.14695312 1.03833984 1.296875 2.09765625 C2.20616784 8.04725337 3.44238717 13.71825591 5.125 19.5 C7.89175671 29.64477461 8.34996349 39.22558006 4 49 C2.50493691 51.56883693 1.25812832 52.95693152 -1 55 C-3.625 55.5625 -3.625 55.5625 -6 55 C-7.8125 53.5 -7.8125 53.5 -9 52 C-8.67 51.01 -8.34 50.02 -8 49 C-6.02 49 -4.04 49 -2 49 C4.31720149 37.33747417 3.67659834 27.37206143 1.07446289 14.74804688 C0.05328731 9.69920761 -0.27481302 5.12984312 0 0 Z " fill="#C57C12" transform="translate(322,296)"/>
<path d="M0 0 C1.13308594 0.18046875 2.26617187 0.3609375 3.43359375 0.546875 C5.67902934 0.92318521 7.92046327 1.31489159 10.16073608 1.7210083 C17.36512111 2.99107949 24.49772088 3.75612272 31.79296875 4.25 C34.08268414 4.41664123 36.37239763 4.58330867 38.66210938 4.75 C42.21658687 5.0018708 45.77121423 5.25148313 49.32592773 5.5 C52.79452981 5.74446614 56.26248353 5.99695562 59.73046875 6.25 C60.78380905 6.32089844 61.83714935 6.39179688 62.92240906 6.46484375 C68.9853194 6.90958417 74.66163856 7.77890295 80.5625 9.25 C80.5625 9.58 80.5625 9.91 80.5625 10.25 C79.87551025 10.19465088 79.18852051 10.13930176 78.48071289 10.08227539 C65.86661324 9.07753857 53.27328052 8.17280034 40.625 7.75 C23.49383525 7.13587402 7.21450378 5.39288983 -9.4375 1.25 C-5.64251705 -1.27998863 -4.41553336 -0.72853839 0 0 Z " fill="#7C3807" transform="translate(185.4375,324.75)"/>
<path d="M0 0 C0.99 0.33 1.98 0.66 3 1 C2.67589507 9.48260844 2.20716464 17.05180937 -1 25 C-1.33 25 -1.66 25 -2 25 C-2.66 22.03 -3.32 19.06 -4 16 C-4.33773438 17.27617187 -4.67546875 18.55234375 -5.0234375 19.8671875 C-5.47360375 21.53655399 -5.92414401 23.20581966 -6.375 24.875 C-6.70757812 26.13763672 -6.70757812 26.13763672 -7.046875 27.42578125 C-7.26601563 28.23144531 -7.48515625 29.03710938 -7.7109375 29.8671875 C-7.90993652 30.61081543 -8.10893555 31.35444336 -8.31396484 32.12060547 C-9 34 -9 34 -11 36 C-10.49789603 25.45581669 -7.87201835 7.87201835 0 0 Z " fill="#C58704" transform="translate(310,154)"/>
<path d="M0 0 C1.1536745 3.4610235 0.84328924 3.83491112 -0.4375 7.0625 C-5.09008068 21.79567214 -1.6276038 36.53338535 4.75 50.125 C7.90439052 56.19113561 11.81693267 61.60660354 16 67 C14.515 67.99 14.515 67.99 13 69 C1.1629038 53.61177494 -6.65536347 36.75545619 -5 17 C-4.007372 11.07604701 -2.91709067 5.30149522 0 0 Z " fill="#6D320B" transform="translate(112,224)"/>
<path d="M0 0 C0 3 0 3 -1.72265625 4.98828125 C-2.88087891 6.13876953 -2.88087891 6.13876953 -4.0625 7.3125 C-11.55108381 15.4231762 -15.38215587 25.08452506 -19.0625 35.3125 C-23.81296394 48.45623028 -30.94196621 56.46242019 -43.1171875 63.25 C-43.73851562 63.4975 -44.35984375 63.745 -45 64 C-45.66 63.67 -46.32 63.34 -47 63 C-46.27554687 62.55269531 -45.55109375 62.10539062 -44.8046875 61.64453125 C-31.73444603 53.47127359 -24.58160783 45.73306325 -19.9375 30.9375 C-15.88185375 18.06488674 -9.26235557 9.59197677 0 0 Z " fill="#744A02" transform="translate(372,305)"/>
<path d="M0 0 C0.33 0.99 0.66 1.98 1 3 C-6.97283441 10.61043284 -16.12795308 15.18799218 -27 17 C-27.33 15.35 -27.66 13.7 -28 12 C-26.80503906 11.62488281 -25.61007812 11.24976563 -24.37890625 10.86328125 C-11.24795503 7.22972428 -11.24795503 7.22972428 0 0 Z " fill="#9B5444" transform="translate(371,128)"/>
<path d="M0 0 C0.99 0 1.98 0 3 0 C5.93867537 4.40801306 4.76783403 7.64873379 3.88671875 12.7109375 C2.59516163 17.50164717 0.33500974 20.42299409 -3 24 C-4.25021404 25.45814984 -5.50021489 26.91648251 -6.75 28.375 C-8.45926938 30.30755231 -10.17519668 32.17519668 -12 34 C-11.58485898 28.33505479 -9.37002196 25.25768093 -6 20.9375 C-1.61266906 15.27662439 0.17152047 11.49187166 0.0625 4.1875 C0.05347656 3.39730469 0.04445313 2.60710937 0.03515625 1.79296875 C0.02355469 1.20128906 0.01195312 0.60960937 0 0 Z " fill="#DFA703" transform="translate(369,219)"/>
<path d="M0 0 C-3.23878669 1.07959556 -3.88499434 0.87879066 -7 0 C-20.8396074 -0.97757065 -33.01905666 0.18840149 -44.2109375 9.30859375 C-47.3964373 12.32021256 -50.23857489 15.59999533 -53 19 C-53.33 18.34 -53.66 17.68 -54 17 C-40.65016708 0.56301822 -20.70350781 -8.56696875 0 0 Z " fill="#DFB114" transform="translate(385,11)"/>
<path d="M0 0 C0.66 0 1.32 0 2 0 C2.98850692 3.01785613 3.96407193 6.03974967 4.9375 9.0625 C5.21529297 9.91005859 5.49308594 10.75761719 5.77929688 11.63085938 C7.31866841 16.43444044 8.46212651 20.98211697 9 26 C8.34 25.67 7.68 25.34 7 25 C7 23.68 7 22.36 7 21 C6.34 21 5.68 21 5 21 C4.8453125 22.8253125 4.8453125 22.8253125 4.6875 24.6875 C4.23780688 28.41069448 3.21617222 30.91662995 1 34 C0.67 33.34 0.34 32.68 0 32 C0.30421875 31.43925781 0.6084375 30.87851562 0.921875 30.30078125 C4.16673319 23.37606577 2.29418845 14.02595213 0 7 C-0.07403678 4.66784156 -0.09515886 2.33139212 0 0 Z " fill="#B2580C" transform="translate(373,271)"/>
<path d="M0 0 C0.33 0.66 0.66 1.32 1 2 C1.66 2 2.32 2 3 2 C4.05885037 5.1765511 4.20049266 7.59988011 4.25 10.9375 C4.28867187 12.49791016 4.28867187 12.49791016 4.328125 14.08984375 C3.96423357 17.31721419 3.16358594 18.63713641 1 21 C-0.98 20.34 -2.96 19.68 -5 19 C-4.0409375 17.63875 -4.0409375 17.63875 -3.0625 16.25 C-0.11650851 11.201216 -0.18776275 5.7173757 0 0 Z " fill="#EE3E0E" transform="translate(372,223)"/>
<path d="M0 0 C10.58835273 0.22927535 20.65829657 3.28029446 29 10 C29 10.66 29 11.32 29 12 C29.66 12 30.32 12 31 12 C36.09194298 18.10715902 37.34219781 24.05568462 36.6875 31.875 C36.44921875 34.1796875 36.44921875 34.1796875 36 36 C35.01 36.495 35.01 36.495 34 37 C34.08701172 35.515 34.08701172 35.515 34.17578125 34 C34.66109991 24.24362062 34.66109991 24.24362062 30.54296875 15.63671875 C21.65723274 6.21108992 12.76161831 3.49904635 0 2 C0 1.34 0 0.68 0 0 Z " fill="#EBA510" transform="translate(275,32)"/>
<path d="M0 0 C2.02287285 3.03430927 3.90374053 6.13244613 5.78125 9.2578125 C6.89667522 11.1468992 6.89667522 11.1468992 9 12 C11.2072923 12.07092842 13.41667452 12.08415025 15.625 12.0625 C17.40777344 12.04896484 17.40777344 12.04896484 19.2265625 12.03515625 C20.59941406 12.01775391 20.59941406 12.01775391 22 12 C22.33 11.01 22.66 10.02 23 9 C23.66 9 24.32 9 25 9 C25.33 10.32 25.66 11.64 26 13 C20.65141993 15.67429003 16.99290494 16.57995854 11 16 C6.44502059 13.92955481 3.00044536 11.00089071 0.75 6.5 C0 4 0 4 0 0 Z " fill="#CC7319" transform="translate(329,289)"/>
<path d="M0 0 C0.66 0 1.32 0 2 0 C3.19706817 2.6210121 4.38288646 5.24614696 5.5625 7.875 C5.90474609 8.62136719 6.24699219 9.36773437 6.59960938 10.13671875 C7.45973857 12.06549332 8.23616798 14.0311033 9 16 C8.67 16.66 8.34 17.32 8 18 C4.73609818 14.82676212 1.84069797 11.55087246 -1 8 C-1.33 8 -1.66 8 -2 8 C-1.125 1.125 -1.125 1.125 0 0 Z " fill="#BE651F" transform="translate(364,328)"/>
<path d="M0 0 C0.66 0.33 1.32 0.66 2 1 C0.85459775 2.31287621 -0.29133433 3.62529021 -1.4375 4.9375 C-2.07558594 5.66839844 -2.71367187 6.39929688 -3.37109375 7.15234375 C-4.22541459 8.12139353 -5.08651175 9.08651175 -6 10 C-5.34 10.66 -4.68 11.32 -4 12 C-9.82254243 13.96818336 -14.83381819 15.40214229 -21 15 C-21 14.67 -21 14.34 -21 14 C-17.7 13.67 -14.4 13.34 -11 13 C-11 12.34 -11 11.68 -11 11 C-12.0828125 11.495 -12.0828125 11.495 -13.1875 12 C-16.01697427 13.00603529 -18.02895466 13.16977402 -21 13 C-18.57506202 10.57506202 -17.12892924 10.46360408 -13.8125 9.75 C-8.34971256 8.35020558 -4.73771153 6.21961773 -1 2 C-0.67 1.34 -0.34 0.68 0 0 Z " fill="#D7A90C" transform="translate(326,92)"/>
<path d="M0 0 C-0.845625 0.58007812 -1.69125 1.16015625 -2.5625 1.7578125 C-3.70845789 2.5466941 -4.85428228 3.33576964 -6 4.125 C-6.59216309 4.53153809 -7.18432617 4.93807617 -7.79443359 5.35693359 C-11.79755096 8.12060116 -15.66045757 11.00360908 -19.4140625 14.1015625 C-19.93742188 14.39804688 -20.46078125 14.69453125 -21 15 C-21.99 14.67 -22.98 14.34 -24 14 C-5.1720297 -1.7240099 -5.1720297 -1.7240099 0 0 Z " fill="#DD760F" transform="translate(150,186)"/>
<path d="M0 0 C-0.33 4.62 -0.66 9.24 -1 14 C-1.66 14 -2.32 14 -3 14 C-3 12.68 -3 11.36 -3 10 C-4.32 10.33 -5.64 10.66 -7 11 C-6.51098901 4.64285714 -6.51098901 4.64285714 -4.0625 1.5625 C-2 0 -2 0 0 0 Z " fill="#EA5E09" transform="translate(375,257)"/>
<path d="M0 0 C0 0.66 0 1.32 0 2 C-1.12525155 3.02649277 -2.30282645 3.99587696 -3.5 4.9375 C-9.60737241 10.11029229 -14.62632097 16.72443967 -18 24 C-18.66 23.67 -19.32 23.34 -20 23 C-17.31303985 17.11155541 -14.91647151 12.34478878 -10 8 C-7.91663019 5.86434485 -5.84321632 3.71927348 -3.76953125 1.57421875 C-2 0 -2 0 0 0 Z " fill="#E65D0A" transform="translate(170,217)"/>
<path d="M0 0 C0.33 0.99 0.66 1.98 1 3 C-4.71904744 8.45909074 -10.8499332 11.68913163 -18 15 C-18.33 14.34 -18.66 13.68 -19 13 C-18.11957031 12.55269531 -17.23914063 12.10539063 -16.33203125 11.64453125 C-15.17058594 11.03996094 -14.00914062 10.43539062 -12.8125 9.8125 C-11.08966797 8.92498047 -11.08966797 8.92498047 -9.33203125 8.01953125 C-5.99972993 5.99983631 -3.62691445 3.85742979 -1 1 C-0.67 0.67 -0.34 0.34 0 0 Z " fill="#B9452F" transform="translate(371,128)"/>
<path d="M0 0 C1.0621875 0.28875 2.124375 0.5775 3.21875 0.875 C4.64569849 1.25051276 6.07278962 1.6254838 7.5 2 C8.54414063 2.28617187 8.54414063 2.28617187 9.609375 2.578125 C14.5412919 3.85677012 18.90580091 4.18357474 24 4 C23.01 5.485 23.01 5.485 22 7 C14.041654 6.0651711 7.1123461 4.78589999 0 1 C0 0.67 0 0.34 0 0 Z " fill="#EA470A" transform="translate(201,298)"/>
<path d="M0 0 C0.66 0.33 1.32 0.66 2 1 C1.27683594 1.68835938 1.27683594 1.68835938 0.5390625 2.390625 C-0.09257812 3.00421875 -0.72421875 3.6178125 -1.375 4.25 C-2.00148438 4.85328125 -2.62796875 5.4565625 -3.2734375 6.078125 C-4.9838483 7.98202119 -5.87982915 9.72231928 -7 12 C-9.625 14.25 -9.625 14.25 -12 16 C-10.58794973 11.70983633 -8.50383651 9.03782149 -5.4375 5.75 C-4.22900391 4.44289062 -4.22900391 4.44289062 -2.99609375 3.109375 C-1 1 -1 1 0 0 Z " fill="#A05D40" transform="translate(285,158)"/>
<path d="M0 0 C0.66 0 1.32 0 2 0 C2.33 1.32 2.66 2.64 3 4 C-4.28571429 7.57142857 -4.28571429 7.57142857 -9 6 C-6.91229447 4.88158632 -5.14591199 4.0291824 -2.8125 3.5625 C-2.214375 3.376875 -1.61625 3.19125 -1 3 C-0.67 2.01 -0.34 1.02 0 0 Z " fill="#C06F1D" transform="translate(352,298)"/>
<path d="M0 0 C0.33 0.66 0.66 1.32 1 2 C-0.24839499 3.105981 -1.49879234 4.20970201 -2.75 5.3125 C-3.44609375 5.92738281 -4.1421875 6.54226562 -4.859375 7.17578125 C-6.85114506 8.87314734 -8.88898915 10.45477809 -11 12 C-10.33333333 10.66666667 -9.66666667 9.33333333 -9 8 C-8.6596875 7.01 -8.6596875 7.01 -8.3125 6 C-6.2428929 2.846313 -3.32098121 1.72199026 0 0 Z " fill="#EF8F0A" transform="translate(211,204)"/>
<path d="M0 0 C0.66 0.33 1.32 0.66 2 1 C1.25710821 5.08590485 0.14025063 9.0091228 -1 13 C-1.35371498 14.66246041 -1.69595322 16.32774271 -2 18 C-2.33 18 -2.66 18 -3 18 C-2.88566637 15.74943278 -2.75813564 13.49953326 -2.625 11.25 C-2.55539062 9.99703125 -2.48578125 8.7440625 -2.4140625 7.453125 C-2.04676696 4.39001879 -1.60288714 2.58025734 0 0 Z " fill="#E0B106" transform="translate(362,42)"/>
<path d="M0 0 C-3.20093937 3.20093937 -7.66157218 3.85960658 -12.08203125 4.125 C-13.7218836 4.125 -15.36156928 4.06826795 -17 4 C-17 3.67 -17 3.34 -17 3 C-13.7 2.67 -10.4 2.34 -7 2 C-7 1.34 -7 0.68 -7 0 C-4.3333581 -1.33332095 -2.83319697 -0.67102033 0 0 Z " fill="#A78B02" transform="translate(322,103)"/>
<path d="M0 0 C0.66 0 1.32 0 2 0 C2.66 4.29 3.32 8.58 4 13 C3.34 13 2.68 13 2 13 C1.47212358 11.02270019 0.95287097 9.04309608 0.4375 7.0625 C0.00244141 5.40927734 0.00244141 5.40927734 -0.44140625 3.72265625 C-0.62574219 2.82417969 -0.81007813 1.92570312 -1 1 C-0.67 0.67 -0.34 0.34 0 0 Z " fill="#E78D04" transform="translate(276,276)"/>
<path d="M0 0 C1.64846769 0.44876616 3.29373455 0.90930488 4.9375 1.375 C5.85402344 1.63023437 6.77054688 1.88546875 7.71484375 2.1484375 C10 3 10 3 11 5 C9.54119891 4.85892253 8.08296449 4.71197585 6.625 4.5625 C5.40683594 4.44068359 5.40683594 4.44068359 4.1640625 4.31640625 C2 4 2 4 0 3 C0 2.01 0 1.02 0 0 Z " fill="#6B2F0D" transform="translate(168,320)"/>
<path d="M0 0 C1.98 0.99 1.98 0.99 4 2 C3.34 4.31 2.68 6.62 2 9 C1.34 8.67 0.68 8.34 0 8 C0 5.36 0 2.72 0 0 Z " fill="#E76A07" transform="translate(355,260)"/>
<path d="M0 0 C3 0 3 0 6 1 C1.545 3.97 1.545 3.97 -3 7 C-1.125 1.125 -1.125 1.125 0 0 Z " fill="#E2A70D" transform="translate(350,107)"/>
<path d="M0 0 C0.99 0 1.98 0 3 0 C3.66 0.99 4.32 1.98 5 3 C4.67 3.99 4.34 4.98 4 6 C4 5.34 4 4.68 4 4 C3.34 4 2.68 4 2 4 C2 5.98 2 7.96 2 10 C1.34 9.67 0.68 9.34 0 9 C0 6.03 0 3.06 0 0 Z " fill="#E37712" transform="translate(369,219)"/>
<path d="M0 0 C0.66 0.66 1.32 1.32 2 2 C-0.31 4.64 -2.62 7.28 -5 10 C-5.66 9.67 -6.32 9.34 -7 9 C-4.69 6.03 -2.38 3.06 0 0 Z " fill="#D79F13" transform="translate(392,45)"/>
<path d="M0 0 C0.66 0 1.32 0 2 0 C2.33 2.97 2.66 5.94 3 9 C2.67 8.34 2.34 7.68 2 7 C1.34 7 0.68 7 0 7 C0 4.69 0 2.38 0 0 Z " fill="#D85F0F" transform="translate(373,271)"/>
<path d="M0 0 C-2.52788007 2.79872437 -4.20411134 4.45773019 -8 5 C-7.625 3.0625 -7.625 3.0625 -7 1 C-4.53721199 -0.231394 -2.7204945 -0.07159196 0 0 Z " fill="#AF5E33" transform="translate(297,95)"/>
<path d="M0 0 C1.98 0.99 1.98 0.99 4 2 C4 2.66 4 3.32 4 4 C4.66 4 5.32 4 6 4 C6.66 5.32 7.32 6.64 8 8 C4.63820226 6.55922954 2.40843732 4.75249979 0 2 C0 1.34 0 0.68 0 0 Z " fill="#F0AD0A" transform="translate(300,40)"/>
<path d="M0 0 C0.66 0 1.32 0 2 0 C3.0625 1.8125 3.0625 1.8125 4 4 C3.67 4.99 3.34 5.98 3 7 C3 6.34 3 5.68 3 5 C2.01 5.33 1.02 5.66 0 6 C0 4.02 0 2.04 0 0 Z " fill="#E77106" transform="translate(372,346)"/>
<path d="M0 0 C-0.33 1.98 -0.66 3.96 -1 6 C-1.66 5.34 -2.32 4.68 -3 4 C-3.66 4.66 -4.32 5.32 -5 6 C-5 3 -5 3 -3.625 1.3125 C-2 0 -2 0 0 0 Z " fill="#E66E0D" transform="translate(375,257)"/>
<path d="M0 0 C0.99 0.33 1.98 0.66 3 1 C0.6875 3.0625 0.6875 3.0625 -2 5 C-2.99 4.67 -3.98 4.34 -5 4 C-2.6875 1.9375 -2.6875 1.9375 0 0 Z " fill="#CF711C" transform="translate(131,196)"/>
<path d="M0 0 C0.33 0.99 0.66 1.98 1 3 C-1.97 5.475 -1.97 5.475 -5 8 C-5 5 -5 5 -2.5 2.3125 C-1.675 1.549375 -0.85 0.78625 0 0 Z " fill="#BD562D" transform="translate(371,128)"/>
</svg>
